<?xml version="1.0" encoding="UTF-8"?>
<svg xmlns="http://www.w3.org/2000/svg" version="1.1" viewBox="0 0 188.3 191">
  <!-- Generator: Adobe Illustrator 28.7.1, SVG Export Plug-In . SVG Version: 1.2.0 Build 142)  -->
  <g>
    <g id="katman_1">
      <g id="American_Broadcast_Company">
        <path d="M26.6,29.1c3.9-4,8-7.8,12.6-11.1,9.1-6.6,19.7-11.9,32.2-15.2C80.3.4,91.6-.6,102.2.4c15.9,1.5,28.3,6.3,39.2,12.7,4.4,2.5,8.3,5.6,12.1,8.7,1.9,1.5,3.7,3.3,5.5,4.9,1.8,1.7,3.6,3.4,5.1,5.3,3.2,3.7,6.3,7.5,9,11.7,5.4,8.3,9.9,18.1,12.6,28.9.2.7.4,1.4.5,2.1.2.7.2,1.5.3,2.3.8,4.2,1.5,8.9,1.7,13.8.3,6.7,0,13.3-.9,19.4-.4,2.2-.8,4.4-1.2,6.6-.1.7-.2,1.5-.4,2.2-.3,1.4-.8,2.7-1.2,4.1-2,6.7-4.5,12.7-7.5,18.3-2.5,4.5-5.2,8.6-8.2,12.6-2.9,3.9-6.3,7.7-9.8,10.9-1.8,1.7-3.6,3.4-5.5,4.9s-3.9,3-5.9,4.5c-4.1,2.8-8.4,5.3-13.1,7.6-2.3,1.2-4.8,2.1-7.3,3.1-7.4,2.9-16,4.9-25.5,5.7-13.6,1.1-26.2-1-36.5-4.5-15.4-5.2-27.9-13.6-38.3-23.9-2.2-2.2-4.1-4.5-6-6.9-.4-.5-.7-1-1.1-1.5C10.2,141,3.1,126,.6,105.7c-.8-6.2-.8-13.1,0-19.7,1.3-12.5,4.5-23.2,9.1-32.4,4.6-9.2,10.2-17.4,17-24.5h-.1ZM73,46.5c-2.6,0-5.5,0-7.7.2-.2,11.9,0,25.3,0,37.7s0,5,0,7.4,0,5,.4,7.2c.3,2.2.8,4.1,1.6,6,2.9,7.1,8.1,12.2,14.8,15.6,3.5,1.8,7.5,2.7,12.3,2.9,4.9.2,9-1.1,12.5-2.7,6.7-3.2,11.9-8.7,14.6-15.9,1.4-3.8,2-8.3,1.6-13.3-.4-4.4-1.9-8.2-3.8-11.4-3.7-6.2-9.7-11.1-17.3-13.2-4.1-1.1-9.4-1.3-13.3,0-3.4,1.1-5.8,3.2-7.9,5.4-.3.3-.6.8-1.1.8,0-7.7-.2-15.6-.2-23.3s0-2.2-.2-3.2c-2-.2-4.2,0-6.3,0v-.2ZM180.4,79c-3.4-5.4-7.9-9.3-14.2-11.8-4.2-1.7-10.7-2.5-15.9-1.3-4.2,1-7.5,2.5-10.6,4.7-4,2.8-7.3,6.7-9.3,11.2-2.1,4.7-3.3,10.9-2.2,17.3,1,5.7,3.4,10.2,6.6,13.9,3.1,3.6,7.3,6.5,12.2,8.3,5.1,1.9,12.1,2,17.7.3,2.5-.8,4.9-1.9,7-3.2,2.1-1.3,4.1-2.9,5.7-4.6,3.2-3.6,5.9-8,6.8-13.6-1.1-.3-2.2,0-3.4,0h-10.6c-.9,1.2-1.5,2.7-2.6,3.8-1.9,2.1-4.4,3.7-7.5,4.5-3.5.9-7.4.2-10.1-1.1-2.6-1.3-4.6-3.2-6.1-5.9-1.4-2.6-2.3-6.1-1.6-10,.3-1.5.9-3.1,1.6-4.4,2.2-3.8,5.6-6.7,10.7-7.3,6-.7,10.3,1.9,12.9,4.9.9,1.1,1.6,2.4,2.4,3.6,3.2,0,7,.2,10.6.2s2.4,0,3.5-.2c-.5-3.5-2-6.6-3.6-9.2h0ZM62.3,101.1c0-3.7.2-7.4-.2-10.6s-1.3-6-2.5-8.5c-2.4-4.8-6-8.8-10.3-11.6-4.4-2.8-9.7-5-16.9-5s-2.6.2-3.8.4c-3.5.5-6.2,1.6-9,3-3.4,1.8-6.4,4.3-8.8,7.2-2.3,2.8-4.3,6.4-5.4,10.5-1.2,4.3-1.3,9.5-.3,14.2.9,4.2,2.8,7.7,5.1,10.8,2.3,3.1,5.3,5.6,8.5,7.5,3.2,1.9,7.2,3.5,12.2,3.8,2.7,0,5,0,7.2-.6,2-.6,3.8-1.4,5.4-2.6,1.2-.9,2.4-2,3.4-3,.3-.3.6-.9,1.2-.9.2,2.4,0,5.1.2,7.3,4.4,0,9.6,0,14-.2.3-7.1,0-14.6,0-21.8h-.1Z" style="fill-rule: evenodd;"/>
        <path d="M93.8,79.5c4.6-.2,8.3,1.6,10.6,3.9,2.3,2.3,4.4,5.4,4.6,9.9.2,4.7-1.5,8.1-3.8,10.7-2.3,2.5-5.5,4.5-9.9,4.6-4.5,0-8.1-1.5-10.6-3.9-2.4-2.3-4.3-5.6-4.6-9.9-.2-4.9,1.6-8.3,3.8-10.7,1.7-1.8,3.9-3.3,6.7-4.2,1-.3,2.1-.4,3.2-.5h0Z" style="fill-rule: evenodd;"/>
        <path d="M43.5,104.1c-2.8,2.9-7.3,5.5-13.3,4.4-3.6-.7-6.4-2.7-8.5-5.1-2-2.3-3.3-6.3-3.1-10.3.1-2.6,1.1-4.9,2.3-6.8.3-.5.5-1,.9-1.4,2.2-2.7,6.1-5.1,10.7-5.3,3.4-.2,6.3,1,8.5,2.4,2.3,1.5,3.9,3.4,5.1,5.8,1.2,2.5,1.9,5.9,1.2,9.2-.6,3-1.9,5.4-3.7,7.2h0Z" style="fill-rule: evenodd;"/>
      </g>
    </g>
  </g>
</svg>