<?xml version="1.0" encoding="utf-8"?>
<svg version="1.1" id="Layer_1" xmlns="http://www.w3.org/2000/svg" xmlns:xlink="http://www.w3.org/1999/xlink" x="0px" y="0px"
	 width="256px" height="256px" viewBox="0 0 256 256" style="enable-background:new 0 0 256 256;" xml:space="preserve">
<g id="W8ts7G.tif">
	<g>
		<path d="M235.3,130.9c-0.5,0.3-0.4,0.8-0.4,1.2c-0.6,4-1.8,7.8-3.6,11.5c-0.2,0.4-0.3,0.8-0.8,1.1c-0.4-1.7-0.7-3.3-1-4.9
			c-2.1-8.8-7.5-15.2-14.7-20.4c-4.2-3-8.9-5.3-13.4-7.9c-19.6-11.1-39.2-22.1-58.7-33.1c-22.5-12.6-44.9-25.3-67.4-37.9
			c-3.8-2.1-7.5-4.3-11.3-6.4c-1.9-1.1-4-1.9-6.2-2.3c-4.6-0.8-8,1.2-9.7,5.6c-1.2,3.1-1.4,6.3-1.4,9.6c0.2,15.2,0.3,30.3,0.5,45.5
			c0.4,35.9,0.7,71.8,1.1,107.7c0.1,6.2,0.1,12.3,0.2,18.5c0,0.9-0.2,1.2-1.1,1.3c-5.6,0.4-11.1-0.1-16-3.3
			c-5.3-3.4-7.9-8.5-8.3-14.7c-0.2-2.8-0.2-5.6-0.2-8.4c-0.6-45.8-1.1-91.6-1.7-137.4C21,47.6,22.3,39.3,26,31.6
			C32.2,19,42.3,11.5,56.2,9.5c11.5-1.6,22,1.2,31.7,7.5c5.2,3.4,10.8,6.3,16.2,9.4c21.7,12.6,43.5,25.1,65.2,37.7
			c13,7.5,25.9,14.9,38.8,22.5c3.7,2.1,7.6,4,11,6.6c8.8,6.8,14.1,15.7,15.8,26.7c0.1,0.4-0.1,1,0.4,1.2
			C235.3,124.4,235.3,127.6,235.3,130.9z"/>
		<path d="M72.8,247c-1.4,0-2.8,0-4.2,0c-13.5-1.1-24.6-6.7-32.7-17.7c0.2-0.4,0.3-0.4,0.5-0.3c11.5,3.5,22,1.2,32.1-4.9
			c28.8-17,57.7-33.8,86.6-50.7c18-10.6,36-21.1,54.1-31.7c2-1.2,4.1-2.4,6.1-3.6c0.6-0.3,0.9-0.4,1.3,0.2c2.6,4,4.7,8.2,5.2,13.1
			c0.9,8.7-2.8,15.2-10,19.5c-17.3,10.2-34.6,20.1-52,30.2c-23.3,13.5-46.7,27.1-70,40.6C84.4,244.8,78.9,246.8,72.8,247z"/>
		<path d="M79.5,170.9c0.2-10.7,0.3-21.5,0.5-32.2c0.1-8.2,0.3-16.4,0.5-24.5c0.2-8.5,0.3-17,0.5-25.5c0.1-3.3,0.1-6.5,0.2-9.8
			c0-1.3,0.1-1.4,1.2-0.7c18.4,10.3,36.7,20.7,55.1,31c10,5.6,19.9,11.2,29.9,16.8c1.2,0.7,1.2,0.8,0,1.4
			c-12.8,7.3-25.7,14.6-38.5,22c-12.4,7.1-24.9,14.3-37.3,21.4c-3.7,2.1-7.3,4.2-11,6.3c-1.1,0.6-1.1,0.6-1.1-0.7
			C79.5,174.6,79.4,172.8,79.5,170.9C79.5,170.9,79.5,170.9,79.5,170.9z"/>
	</g>
</g>
</svg>
