<?xml version="1.0" encoding="UTF-8" standalone="no"?>
<svg
   height="1249.21"
   stroke-miterlimit="10"
   style="clip-rule:evenodd;fill-rule:nonzero;stroke-linecap:round;stroke-linejoin:round"
   version="1.1"
   viewBox="0 0 1249.24 1249.21"
   width="1249.24"
   xml:space="preserve"
   id="svg10"
   xmlns="http://www.w3.org/2000/svg"
   xmlns:svg="http://www.w3.org/2000/svg"
   xmlns:vectornator="http://vectornator.io">

<g
   clip-path="url(#ArtboardFrame)"
   id="Layer-1"
   vectornator:layerName="Layer 1">
<path
   d="M 624.624,0 C 279.656,4.59343e-5 0,279.656 0,624.624 -1.83737e-4,969.593 279.656,1249.21 624.624,1249.21 969.593,1249.21 1249.25,969.593 1249.25,624.624 1249.25,279.656 969.593,0 624.624,0 Z m 0,260.172 c 10.072,0 20.059,0.299 30.022,0.741 0.011,0 0.023,-0.001 0.035,0 0.153,0.007 0.305,0.028 0.459,0.035 3.226,0.149 6.452,0.338 9.666,0.529 7.16,0.426 14.28,0.973 21.378,1.623 1.387,0.127 2.773,0.241 4.163,0.353 11.013,1.078 21.958,2.379 32.808,3.986 3.178,0.471 6.326,1.036 9.489,1.552 6.663,1.087 13.302,2.246 19.897,3.528 0.235,0.046 0.47,0.095 0.705,0.141 12.334,2.412 24.575,5.103 36.654,8.185 2.283,0.583 4.534,1.228 6.808,1.834 7.142,1.904 14.227,3.935 21.273,6.068 3.194,0.966 6.388,1.95 9.56,2.963 7.285,2.327 14.523,4.77 21.696,7.338 0.01,0.004 0.024,-0.004 0.035,0 0.07,0.025 0.142,0.045 0.212,0.07 1.866,0.665 3.752,1.292 5.609,1.976 0.045,0.017 0.095,0.019 0.141,0.035 8.09,2.984 16.084,6.169 24.024,9.455 4.181,1.73 8.314,3.514 12.453,5.327 4.382,1.919 8.719,3.916 13.053,5.926 4.47,2.074 8.954,4.145 13.37,6.315 6.981,3.427 13.902,6.957 20.743,10.618 0.915,0.491 1.803,1.023 2.716,1.517 3.424,1.884 6.83,3.794 10.231,5.715 3.414,1.928 6.819,3.871 10.195,5.856 0.113,0.067 0.24,0.11 0.353,0.177 1.739,1.025 3.457,2.099 5.186,3.139 2.947,1.768 5.909,3.516 8.819,5.327 1.992,1.24 3.949,2.515 5.927,3.775 0.573,0.368 1.154,0.726 1.728,1.094 8.188,5.253 16.228,10.701 24.168,16.298 0.33,0.235 0.69,0.435 1.02,0.67 2.69,1.904 5.38,3.808 8.04,5.75 4.74,3.458 9.4,6.97 14.04,10.548 7.26,5.593 14.41,11.336 21.42,17.216 5.15,4.294 10.23,8.665 15.24,13.123 4.8,4.28 9.5,8.673 14.18,13.088 7.98,7.534 15.75,15.296 23.35,23.213 0.9,0.936 1.79,1.881 2.68,2.822 5.09,5.362 10.09,10.805 15,16.333 1.18,1.333 2.35,2.679 3.52,4.022 5.07,5.8 10.06,11.664 14.93,17.639 0.51,0.634 1.07,1.233 1.58,1.87 5.81,7.175 11.46,14.456 16.97,21.872 0.03,0.034 0.05,0.072 0.07,0.105 5.01,6.747 9.89,13.628 14.64,20.567 1.46,2.126 2.87,4.278 4.31,6.421 3.35,5.008 6.62,10.067 9.84,15.169 1.58,2.498 3.15,4.994 4.69,7.514 2.89,4.722 5.69,9.49 8.47,14.288 1.66,2.876 3.35,5.739 4.97,8.643 4.07,7.285 8.06,14.633 11.86,22.083 C 1108.7,840.873 884.039,989.042 624.624,989.042 365.207,989.043 140.547,840.878 30.2329,624.624 c 4.5545,-8.929 9.3836,-17.695 14.3227,-26.387 1.3365,-2.352 2.6927,-4.686 4.0569,-7.02 10.0453,-17.189 20.8216,-33.894 32.3142,-50.059 1.6798,-2.363 3.3706,-4.716 5.08,-7.056 5.7924,-7.927 11.687,-15.767 17.8153,-23.424 4.699,-5.873 9.502,-11.649 14.393,-17.357 6.47,-7.549 13.172,-14.903 19.967,-22.154 1.025,-1.092 2.037,-2.195 3.069,-3.281 8.592,-9.046 17.411,-17.869 26.494,-26.423 4.391,-4.135 8.798,-8.26 13.299,-12.276 0.081,-0.072 0.166,-0.141 0.247,-0.212 12.053,-10.742 24.511,-21.012 37.324,-30.868 4.379,-3.369 8.8,-6.687 13.264,-9.948 2.751,-2.009 5.544,-3.959 8.326,-5.927 0.165,-0.116 0.328,-0.236 0.494,-0.352 0.09,-0.064 0.192,-0.113 0.282,-0.177 7.085,-4.996 14.269,-9.846 21.555,-14.569 0.12,-0.079 0.231,-0.17 0.352,-0.247 0.329,-0.213 0.66,-0.423 0.988,-0.635 3.142,-2.027 6.278,-4.058 9.455,-6.033 4.297,-2.671 8.655,-5.292 13.017,-7.867 0.141,-0.083 0.283,-0.164 0.423,-0.247 3.642,-2.146 7.321,-4.236 11.007,-6.314 4.164,-2.349 8.304,-4.724 12.523,-6.985 0.061,-0.033 0.117,-0.074 0.177,-0.106 6.919,-3.705 13.927,-7.26 20.99,-10.725 4.115,-2.018 8.29,-3.955 12.453,-5.891 0.2,-0.093 0.399,-0.189 0.6,-0.282 4.237,-1.966 8.484,-3.907 12.77,-5.786 0.14,-0.061 0.283,-0.115 0.423,-0.176 4.082,-1.786 8.154,-3.551 12.277,-5.256 0.048,-0.02 0.092,-0.051 0.141,-0.071 7.891,-3.263 15.842,-6.419 23.883,-9.384 0.045,-0.016 0.096,-0.018 0.141,-0.035 1.927,-0.71 3.886,-1.354 5.821,-2.046 7.184,-2.572 14.436,-5.008 21.731,-7.338 3.162,-1.009 6.342,-2 9.525,-2.963 6.832,-2.069 13.714,-4.003 20.637,-5.856 0.475,-0.128 0.936,-0.298 1.411,-0.424 1.673,-0.444 3.337,-0.899 5.01,-1.34 9.386,-2.412 18.857,-4.589 28.398,-6.597 0.084,-0.018 0.163,-0.053 0.247,-0.071 1.625,-0.341 3.267,-0.638 4.904,-0.952 8.187,-1.656 16.436,-3.163 24.729,-4.516 0.119,-0.019 0.234,-0.051 0.353,-0.07 0.952,-0.155 1.907,-0.303 2.858,-0.459 11.285,-1.784 22.645,-3.341 34.113,-4.551 0.083,-0.008 0.164,-0.026 0.247,-0.035 1.359,-0.143 2.728,-0.241 4.092,-0.353 8.691,-0.859 17.425,-1.523 26.211,-2.046 3.366,-0.2 6.745,-0.414 10.125,-0.564 9.974,-0.443 19.973,-0.741 30.056,-0.741 z m 0,37.218 c -180.713,0 -327.199,146.521 -327.199,327.234 0,180.713 146.486,327.2 327.199,327.2 180.713,0 327.2,-146.486 327.2,-327.2 0,-180.713 -146.486,-327.234 -327.2,-327.234 z"
   fill="#000000"
   fill-rule="nonzero"
   opacity="1"
   stroke="none"
   id="path7" />
</g>
</svg>
