<?xml version="1.0" encoding="UTF-8"?>
<svg xmlns="http://www.w3.org/2000/svg" version="1.1" viewBox="0 0 512 512">
  <!-- Generator: Adobe Illustrator 28.7.1, SVG Export Plug-In . SVG Version: 1.2.0 Build 142)  -->
  <g>
    <g id="Layer_1">
      <path d="M512,256C512,114.6,396.5,0,254,0S-4,114.6-4,256s115.5,256,258,256,258-114.6,258-256ZM267.3,411.3c-6.2,6.2-16.4,6.2-22.6,0l-96-96c-4.6-4.6-5.9-11.5-3.5-17.4s8.3-9.9,14.8-9.9h192c6.5,0,12.3,3.9,14.8,9.9s1.1,12.9-3.5,17.4l-96,96ZM267.3,100.7l96,96c4.6,4.6,5.9,11.5,3.5,17.4s-8.3,9.9-14.8,9.9h-192c-6.5,0-12.3-3.9-14.8-9.9s-1.1-12.9,3.5-17.4l96-96c6.2-6.2,16.4-6.2,22.6,0Z"/>
    </g>
  </g>
</svg>