<svg xmlns="http://www.w3.org/2000/svg" viewBox="0 0 128 128"><path d="M56.89,78.37v-7.26h-8.89s0-3.55,0-3.55h8.89v-7.11h-8.89v-3.56h8.89v-7.11h-8.89v-3.55h8.89v-7.11h-8.89s0-3.55,0-3.55h8.89v-5.33c0-3.92-3.19-7.11-7.11-7.11s-7.11,3.19-7.11,7.11v48.15c-3.76,2.18-6.43,6.02-6.99,10.52h28.2c-.56-4.5-3.23-8.34-6.99-10.53h0Z"/><path d="M64,0C28.65,0,0,28.65,0,64s28.65,64,64,64,64-28.66,64-64S99.34,0,64,0ZM96,40.89l17.78,17.78h-35.56s17.78-17.78,17.78-17.78ZM49.78,112c-11.76,0-21.33-9.57-21.33-21.33,0-6.3,2.76-11.95,7.11-15.85V30.22c0-7.84,6.37-14.22,14.22-14.22s14.22,6.38,14.22,14.22v44.59c4.35,3.91,7.11,9.56,7.11,15.85,0,11.76-9.57,21.33-21.34,21.33h0ZM96,87.11l-17.78-17.78h35.56l-17.78,17.78Z"/></svg>