<?xml version="1.0" encoding="UTF-8" standalone="no"?>
<svg
   id="Layer_1"
   version="1.1"
   viewBox="0 0 329.79999 329.90002"
   width="329.79999"
   height="329.90002"
   xmlns="http://www.w3.org/2000/svg"
   xmlns:svg="http://www.w3.org/2000/svg">
  <!-- Generator: Adobe Illustrator 29.0.1, SVG Export Plug-In . SVG Version: 2.1.0 Build 192)  -->
  <path
     d="m 161.1,231.1 c 0.8,2 1.8,3.9 2.8,5.9 -6.7,3.6 -13.1,7.8 -19.1,12.6 -1.5,-4.3 0.6,-8.7 2.1,-12.9 0.3,-0.8 0.6,-1.7 1,-2.5 v 0 c 0.6,0 2,0 2.5,-0.3 1.3,-0.3 2.9,-0.4 3.2,-2.1 V 231 c 0,-2.1 1.5,-10.3 2.1,-13.3 1.4,3.1 2.9,6.6 3.4,8 v 0 c 0.6,1.8 1.3,3.6 2.1,5.4 v 0 z m -58.3,-70.9 v 0 c 5.3,6.7 10.1,13.8 14.2,21.2 v 0 c 0,-0.7 0.4,-1.3 1,-1.4 0.4,0 0.8,0.1 1.1,0.6 0.3,0.6 0.6,1.1 1,1.5 0.4,0.7 1,1.3 1.7,1.5 0.7,0.3 1.7,0.6 2.4,0.7 l 2,0.6 c 1.3,0.3 2.4,1 3.4,2 0.4,0.7 1,1.3 1.4,1.8 0.7,0.6 1.4,1.1 2.2,1.5 3.8,2.1 8.1,3.1 12.4,2.9 2,-3.6 5.9,-5.9 9.9,-5.6 3.1,0 6,1.5 8,3.9 6.4,-1.5 12.3,-4.9 16.8,-9.8 0.7,-0.7 1.7,-1.7 2.8,-2.7 l -2.5,-3.2 h -3.9 c -1.3,0 -2.4,-0.3 -3.5,-0.7 -1,-0.4 -1.7,-1.3 -2,-2.2 v -1.7 c 0,-0.6 -1,-0.7 -1.1,-1.1 -0.1,-0.4 -0.1,-0.8 0,-1.1 l 0.4,-0.6 h -0.1 c -0.4,-0.6 -1,-0.8 -0.8,-1.5 0.2,-0.7 1,-0.7 0.6,-1.4 -0.1,-0.3 -0.4,-0.4 -0.6,-0.7 -0.7,-0.4 -1.1,-1 -1.4,-1.8 0,-1.1 2,-2.4 2.9,-3.5 0.7,-0.6 1,-1.4 1,-2.2 -0.3,-1 -0.4,-2.1 -0.6,-3.1 v -1.7 c -0.6,0.8 -1.5,1.4 -2.5,1.5 1.1,-1.3 1.5,-3.1 1.3,-4.7 0,-1.7 0.7,-3.1 2,-4.2 -1.8,-1 -2.8,1.1 -2.8,1.1 0,-2.7 2.2,-4.9 5,-4.7 h 0.6 c -1.4,-0.8 -2.4,-2.5 -2.4,-4.2 0.6,0.7 1.4,1.3 2.2,1.7 1,0.3 2.1,0.6 3.1,0.6 1,0 2.1,0 3.2,-0.3 1.4,-0.3 2.8,-0.6 4.3,-0.8 4.2,-1.5 8.8,-0.8 12.4,1.7 -0.6,-0.7 -0.8,-1.7 -0.6,-2.7 0.3,0.8 1,1.3 1.7,2.1 1.7,1.4 3.5,2.7 5.3,3.8 1.3,1.3 2.2,2.8 2.7,4.5 1.8,-0.3 3.5,0.7 4.1,2.4 -2.2,-1.4 -1.8,2.9 -1.8,3.9 0,2 0,3.8 -0.4,5.7 -1.1,4.3 -3.9,8 -7.8,10.1 -1,0.4 -1.7,1.1 -2.2,2 v 0.7 c 0.4,-0.3 0.8,-0.4 1.3,-0.6 1,-0.3 3.5,-0.8 3.9,0.6 0.1,1.1 0.6,2.1 0.8,3.2 0.3,0.3 1.1,1 1.8,1.8 0.4,0.4 0.8,1 1.3,1.5 1.1,1.4 2.1,2.9 2.9,4.5 1.1,2.2 2.1,4.7 2.8,7.1 1,3.4 1.7,6.7 2,10.2 0.3,2.7 0.6,5.3 0.6,8 v 3.6 c 6.6,-7.1 12,-15.2 16.3,-23.9 7.8,-16.1 11.9,-33.8 12,-51.7 0.6,-68.499999 -52,-129.5999992 -135.5,-114.799999 -15.199998,2.8 -29.899998,8.2 -43.199998,16.2 -14.2,8.2 -26.7,19.6 -36.2,33.1 -4.9,7 -9.1,14.4 -12.9,22.1 15.1,7.099999 29.5,15.599999 43,25.599999 16.2,11.7 30.7,25.6 43.199998,41.3 v 0 z m 24.5,38.3 h -1.8 c 0.7,1.5 1.3,3.2 2,4.7 0,-0.4 0.4,-0.8 0.7,-1 1.3,-0.6 2.7,-0.3 3.6,0.6 2.8,2 6.1,2.8 9.5,2.4 0.4,-1.3 0.7,-2.7 1.1,-3.9 -1.5,-0.4 -3.1,-1 -4.6,-1.4 -1.8,-0.7 -3.6,-1.1 -5.4,-1.5 -1.7,-0.1 -3.2,-0.1 -4.9,0 h -0.1 z m 37.7,131 v 0 c 90.9,0 164.7,-73.6 164.8,-164.7 C 329.8,73.900001 256.2,0.10000076 165.2,7.6293941e-7 130.6,7.6293941e-7 96.700002,10.900001 68.700002,31.200001 c 0,0 0.3,0.3 1,-0.3 7.7,-4.7 15.8,-8.8 24.2,-12.2 2.5,-1 5,-2 7.699998,-2.9 25,-8.9000002 51.8,-11.5000002 77.9,-7.0000002 10.2,1.8000002 20.1,4.6000002 29.8,8.7000002 27.9,11.5 52.7,31.9 67.2,58.7 C 292.3,105.4 297.6,141.3 288.9,173.6 c -5.2,19 -14.7,36.6 -27.7,51.5 -13.3,15.4 -29.6,27.7 -48.1,36.3 -18.9,8.9 -39.3,13.6 -60.1,13.7 -0.7,1.8 -1.3,3.6 -1.7,5.4 -0.1,0.6 -0.1,1.1 -0.4,1.5 -0.6,1.4 -2.1,1.1 -3.4,1.1 -1.3,0 -1.5,0 -2.2,-0.1 -1.5,1.7 -2.8,3.6 -3.8,5.6 v 0 c -1.5,3.6 -2.5,5.6 -1.4,8.5 0.4,1 0.6,2.1 0.4,3.2 0,1.1 -0.4,2.1 -1.3,2.8 -1,0.6 -2,0.8 -3.1,0.7 -2.2,0 -4.3,0.3 -6.3,1.1 -2.4,1.3 -4.9,2.5 -7.4,3.5 -2.5,1.1 -5.3,1 -7.7,0 -0.4,-0.3 -0.7,-0.6 -1.1,-0.8 -0.4,-0.1 -0.8,-0.3 -1.3,-0.3 -1.3,0 -2.4,-0.7 -2.9,-1.8 -0.3,-0.7 0,-1.4 0.3,-2 0.4,-0.7 1.1,-0.7 1.8,-0.6 0.6,0 1,0.1 1.5,0.1 1,0 1.8,-0.3 2.7,-0.6 1.7,-0.8 3.2,-1.8 4.5,-3.1 1.3,-1.1 2.8,-2.5 4.2,-3.6 1.4,-1.1 2.2,-2 2.9,-2.5 2.2,-2.1 4.1,-4.3 5.4,-7 1,-2.1 1.8,-4.2 2.4,-6.3 l -0.8,-0.6 c -1,-0.7 -2.2,-1.5 -1.8,-2.9 0.3,-0.8 0.7,-1.7 1.1,-2.5 -33.799998,-4.5 -53.799998,-19.4 -53.599998,-19.4 11.2,2.7 22.599998,3.8 34.099998,3.4 -0.3,-0.3 -0.4,-0.6 -0.6,-0.8 -0.1,-0.4 -0.3,-0.8 -0.3,-1.3 0,-0.5 0.1,-1 0.6,-1.3 0,0 0.1,0 0.3,-0.1 h 0.7 c 1.1,0.1 2.1,0.3 3.2,0.1 0.7,0 1.5,-0.1 2.2,-0.3 l 1.1,-0.3 1.8,-0.6 c 0.6,-0.3 1.1,-0.6 1.7,-0.8 1.4,-0.8 2.7,-1.8 3.9,-2.9 2.1,-1.8 3.9,-3.8 5.3,-6 0,0 0.1,-0.4 0.3,-0.6 1.1,-3.2 2.1,-6.4 2.8,-9.8 l 0.4,-2 h -0.1 c -1.3,-1 -2.8,-2.1 -2.2,-3.9 0.4,-1.1 0.6,-1.3 1,-2.4 0.4,-1.1 1,-3.4 1.4,-5.2 l 1.5,-6.1 c -0.8,0 -1.5,0.3 -2.2,0.6 -1.8,0.8 -3.4,2 -5.2,2.8 0.4,1.5 0.8,3.1 1.3,4.6 0.1,0.6 0,1.3 -0.3,1.8 -0.3,0.6 -0.8,1 -1.5,1.1 h -0.6 c -1.1,0 -2,-0.8 -2.2,-1.8 -0.4,-2 -1,-3.8 -1.5,-5.7 -0.3,-0.3 -0.6,-0.6 -0.7,-0.8 -1.3,0 -2.5,-0.7 -2.8,-2.1 -1.3,-0.4 -2.1,-1.7 -2,-3.1 -0.7,0 -1.1,-0.8 -1.4,-1.4 -0.7,-1.8 0.8,-3.1 2.2,-3.6 0.3,0 0.4,0 0.7,-0.1 -0.8,-2.4 -1.8,-4.6 -2.8,-7 -1.8,-0.6 -2.1,-1.5 -2,-1.5 -1.7,0 -2.2,-2 -2.1,-2 -2.2,-0.1 -2.2,-2.9 -2.2,-2.9 -1,-0.3 -1.5,-1.1 -1.5,-2.1 0,-1 0.6,-1 1.4,-1.4 0.4,-0.3 1,-0.4 1.4,-0.6 -4.6,-8.8 -10.1,-17.2 -16.199998,-25 -12.2,-15.5 -26.1,-29.3 -41.9,-41.1 -13.1,-9.9 -27.4,-18.4 -42.3,-25.299999 C 5.2000015,117.8 0.20000153,140.4 1.5258789e-6,163.4 v 1.8 C 1.5258789e-6,256.1 73.800002,329.9 164.7,329.9 v 0 -0.6 z m 18,-126.3 c -2.9,1.1 -6,2.1 -9.1,2.8 3.2,4.5 6.7,8.9 10.1,13.3 l 2.2,2.5 c 0.3,-2.1 0.4,-4.1 0.6,-6.1 0,-4.3 -1.1,-8.7 -3.6,-12.3 h -0.1 z"
     id="path1" />
</svg>
