<?xml version="1.0" encoding="UTF-8"?>
<svg id="Layer_1" xmlns="http://www.w3.org/2000/svg" version="1.1" viewBox="0 0 560 400">
  <path d="M277.3,215.4c.6,1.4,1.3,2.8,2,4.2-4.8,2.6-9.4,5.6-13.7,9-1.1-3.1.4-6.2,1.5-9.2.2-.6.4-1.2.7-1.8h0c.4,0,1.4,0,1.8-.2.9-.2,2.1-.3,2.3-1.5,0-.2,0-.4,0-.6,0-1.5,1.1-7.4,1.5-9.5,1,2.2,2.1,4.7,2.4,5.7h0c.4,1.3.9,2.6,1.5,3.9h0ZM235.6,164.6h0c3.8,4.8,7.2,9.9,10.2,15.2h0c0-.5.3-.9.7-1,.3,0,.6.1.8.4.2.4.4.8.7,1.1.3.5.7.9,1.2,1.1.5.2,1.2.4,1.7.5l1.4.4c.9.2,1.7.7,2.4,1.4.3.5.7.9,1,1.3.5.4,1,.8,1.6,1.1,2.7,1.5,5.8,2.2,8.9,2.1,1.4-2.6,4.2-4.2,7.1-4,2.2,0,4.3,1.1,5.7,2.8,4.6-1.1,8.8-3.5,12-7,.5-.5,1.2-1.2,2-1.9l-1.8-2.3h-2.8c-.9,0-1.7-.2-2.5-.5-.7-.3-1.2-.9-1.4-1.6v-1.2c0-.4-.7-.5-.8-.8-.1-.3-.1-.6,0-.8,0,0,.3-.4.3-.4h-.1c-.3-.4-.7-.6-.6-1.1.1-.5.7-.5.4-1-.1-.2-.3-.3-.4-.5-.5-.3-.8-.7-1-1.3,0-.8,1.4-1.7,2.1-2.5.5-.4.7-1,.7-1.6-.2-.7-.3-1.5-.4-2.2v-1.2c-.4.6-1.1,1-1.8,1.1.8-.9,1.1-2.2.9-3.4,0-1.2.5-2.2,1.4-3-1.3-.7-2,.8-2,.8,0-1.9,1.6-3.5,3.6-3.4.1,0,.3,0,.4,0-1-.6-1.7-1.8-1.7-3,.4.5,1,.9,1.6,1.2.7.2,1.5.4,2.2.4.8,0,1.5,0,2.3-.2,1-.2,2-.4,3.1-.6,3-1.1,6.3-.6,8.9,1.2-.4-.5-.6-1.2-.4-1.9.2.6.7.9,1.2,1.5,1.2,1,2.5,1.9,3.8,2.7.9.9,1.6,2,1.9,3.2,1.3-.2,2.5.5,2.9,1.7-1.6-1-1.3,2.1-1.3,2.8,0,1.4,0,2.7-.3,4.1-.8,3.1-2.8,5.7-5.6,7.2-.7.3-1.2.8-1.6,1.4,0,.2,0,.3,0,.5.3-.2.6-.3.9-.4.7-.2,2.5-.6,2.8.4.1.8.4,1.5.6,2.3.2.2.8.7,1.3,1.3.3.3.6.7.9,1.1.8,1,1.5,2.1,2.1,3.2.8,1.6,1.5,3.4,2,5.1.7,2.4,1.2,4.8,1.4,7.3.2,1.9.4,3.8.4,5.7v2.6c4.7-5.1,8.6-10.9,11.7-17.1,5.6-11.5,8.5-24.2,8.6-37,.4-49-37.2-92.8-97-82.2-10.9,2-21.4,5.9-30.9,11.6-10.2,5.9-19.1,14-25.9,23.7-3.5,5-6.5,10.3-9.2,15.8,10.8,5.1,21.1,11.2,30.8,18.3,11.6,8.4,22,18.3,30.9,29.6h0ZM253.1,192h0c0,0-1.3,0-1.3,0,.5,1.1.9,2.3,1.4,3.4,0-.3.3-.6.5-.7.9-.4,1.9-.2,2.6.4,2,1.4,4.4,2,6.8,1.7.3-.9.5-1.9.8-2.8-1.1-.3-2.2-.7-3.3-1-1.3-.5-2.6-.8-3.9-1.1-1.2-.1-2.3-.1-3.5,0h0ZM280.1,285.8h0c65.1,0,117.9-52.7,118-117.9,0-65.1-52.7-117.9-117.8-118-24.8,0-49,7.8-69.1,22.3,0,0,.2.2.7-.2,5.5-3.4,11.3-6.3,17.3-8.7,1.8-.7,3.6-1.4,5.5-2.1,17.9-6.4,37.1-8.2,55.8-5,7.3,1.3,14.4,3.3,21.3,6.2,20,8.2,37.7,22.8,48.1,42,11.3,20.9,15.1,46.6,8.9,69.7-3.7,13.6-10.5,26.2-19.8,36.9-9.5,11-21.2,19.8-34.4,26-13.5,6.4-28.1,9.7-43,9.8-.5,1.3-.9,2.6-1.2,3.9-.1.4-.1.8-.3,1.1-.4,1-1.5.8-2.4.8-.4,0-1.1,0-1.6-.1-1.1,1.2-2,2.6-2.7,4h0c-1.1,2.6-1.8,4-1,6.1.3.7.4,1.5.3,2.3,0,.8-.3,1.5-.9,2-.7.4-1.4.6-2.2.5-1.6,0-3.1.2-4.5.8-1.7.9-3.5,1.8-5.3,2.5-1.8.8-3.8.7-5.5,0-.3-.2-.5-.4-.8-.6-.3-.1-.6-.2-.9-.2-.9,0-1.7-.5-2.1-1.3-.2-.5,0-1,.2-1.4.3-.5.8-.5,1.3-.4.4,0,.7.1,1.1.1.7,0,1.3-.2,1.9-.4,1.2-.6,2.3-1.3,3.2-2.2.9-.8,2-1.8,3-2.6,1-.8,1.6-1.4,2.1-1.8,1.6-1.5,2.9-3.1,3.9-5,.7-1.5,1.3-3,1.7-4.5l-.6-.4c-.7-.5-1.6-1.1-1.3-2.1.2-.6.5-1.2.8-1.8-24.2-3.2-38.5-13.9-38.4-13.9,8,1.9,16.2,2.7,24.4,2.4-.2-.2-.3-.4-.4-.6-.1-.3-.2-.6-.2-.9,0-.3.1-.7.4-.9,0,0,.1,0,.2-.1.2,0,.3,0,.5,0,.8.1,1.5.2,2.3.1.5,0,1.1-.1,1.6-.2l.8-.2,1.3-.4c.4-.2.8-.4,1.2-.6,1-.6,1.9-1.3,2.8-2.1,1.5-1.3,2.8-2.7,3.8-4.3,0,0,.1-.3.2-.4.8-2.3,1.5-4.6,2-7l.3-1.4h-.1c-.9-.7-2-1.5-1.6-2.8.3-.8.4-.9.7-1.7.3-.8.7-2.4,1-3.7l1.1-4.4c-.6,0-1.1.2-1.6.4-1.3.6-2.4,1.4-3.7,2,.3,1.1.6,2.2.9,3.3.1.4,0,.9-.2,1.3-.2.4-.6.7-1.1.8h-.4c-.8,0-1.4-.6-1.6-1.3-.3-1.4-.7-2.7-1.1-4.1-.2-.2-.4-.4-.5-.6-.9,0-1.8-.5-2-1.5-.9-.3-1.5-1.2-1.4-2.2-.5,0-.8-.6-1-1-.5-1.3.6-2.2,1.6-2.6.2,0,.3,0,.5-.1-.6-1.7-1.3-3.3-2-5-1.3-.4-1.5-1.1-1.4-1.1-1.2,0-1.6-1.4-1.5-1.4-1.6-.1-1.6-2.1-1.6-2.1-.7-.2-1.1-.8-1.1-1.5,0-.4.4-.7,1-1,.3-.2.7-.3,1-.4-3.3-6.3-7.2-12.3-11.6-17.9-8.7-11.1-18.7-21-30-29.4-9.4-7.1-19.6-13.2-30.3-18.1-6.8,14.9-10.4,31.1-10.5,47.5v1.3c0,65.1,52.8,117.9,117.9,117.9h0ZM293,195.4c-2.1.8-4.3,1.5-6.5,2,2.3,3.2,4.8,6.4,7.2,9.5l1.6,1.8c.2-1.5.3-2.9.4-4.4,0-3.1-.8-6.2-2.6-8.8h0c0,0,0,0,0,0ZM535,339.1c0,6.3-7.9,10.9-20.4,10.9h-2.3c-2.7,0-5.4-.3-8-.7h-19.5c-3-3.3-11.2-10.8-17-16.3h-.2v8.2c-.2,5.6.6,6.1,6.2,6.4v1.8h-27.3c-1.7,0-3.4,0-5.1-.2-3.3-.4-6.4-1.9-8.8-4.2-2.4-2.6-4.6-5.4-6.4-8.4-.7-1.1-2-1.8-3.3-1.8h-1v6.5c0,5.6.6,6.1,6.1,6.4v1.8h-25.7v-1.8c5.6-.4,6.3-.9,6.3-6.4v-9.5c-.3,10.7-12,18.1-27.4,18.1s-27-8.2-27-17.6c0-.5,0-1,0-1.5-2.7,5.6-5.9,11.6-9.1,18.6h-8.5l-16.3-28h-.2l-14.9,28h-8.5l-16.5-31.9c-4,.4-4.2,1.5-4,6.2l.8,17.3c.2,5.7.4,6.3,6.2,6.6v1.6h-25.3v-1.8c6.1-.3,6.3-.7,6.2-6.4l-.2-18.2h-.3l-16,26.5h-3.7l-15.1-24.7h-.2l-.6,11.5c-.3,2.8-.2,5.7.2,8.5.3,1.9,2.1,2.6,7.4,2.9v1.8h-34.3v-1.8h2.3c2.9-.3,3-1.2,2-3l-2.8-5.2h-12.8l-2.3,4.8c-1.1,2.2-1,3.1,2.6,3.4h2.2v1.8h-51.6c-3.4.2-6.8-.3-9.9-1.6-4.6-2.3-7.5-7-10.3-11.1-.7-1.1-1.9-1.8-3.2-1.9h-1v6.2c0,5.5.6,6.1,6,6.4v1.8h-24.7v-1.8c5.5-.2,6.2-.8,6.2-6.4v-17.1c0-3-.2-4.6-1.2-5.5-.4-.3-.9-.5-1.4-.6-.7,0-1.4-.1-2.1-.1h-.7c1.3,2.1,2.1,4.5,2.1,7,0,17.2-21.1,24.6-47,24.6h-28.8v-2.2c8.2-.4,9.1-1.3,9.1-8.8v-22.9c0-7.5-.9-8-8.2-8.4v-2.7h32.7c13.8,0,25.2,1.7,32.7,6.2,2.3,1.4,4.3,3.1,6,5.1h25.4c6.1,0,10.1.5,13.2,1.8,3.1,1.3,5.5,3.6,5.5,6.7,0,4.6-4.3,7.2-10.1,8.8,1.1,1.5,4,5,6.3,7.4,2.7,2.8,4.4,4.5,5.6,5.5.5.5,1.1.8,1.8,1,.8.2,1.7.2,2.5,0,2.3-.5,2.6-1.9,2.6-5.8v-17.1c0-5.6-.6-6.3-5.9-6.6v-1.7h37.4c0,.9.5,4.7.9,8.5l-3.5.2c-.4-1.9-1.4-3.7-2.8-5-1.2-.9-3.8-1.2-8-1.2h-1.3c-3,0-3.2.3-3.2,2.1v9.9h4c6.8,0,7-.2,7.8-4.1h3.5v12.2h-3.6c-.8-4.6-1-4.8-7.8-4.8h-3.9v8.3c0,2.7.2,4.1,1.6,4.6,1.8.4,3.7.6,5.5.5,3.2,0,7.7-.4,9.4-1.6.7-.6,1.3-1.2,1.8-2l.5-.8,15.6-26.8,5.4-.7,5.3,9.8c3.3,6.2,6.7,12.3,9.6,17.6,1.1,1.9,2.4,3.8,2.8,3.8s.6-.8.7-1.3c.7-3,1.1-6,1.3-9.1l.9-10.5c.6-6.5,0-7.4-6.4-7.8v-1.7h19l14.2,20.5,12.4-20.5h16.5l-1.4-2.7c-3-5.8-5-5.8-10.1-6.2v-2.4h34.6v2.4l-3.6.3c-4.1.4-4.4.8-3.1,3.6l10.5,23.2.2-.4,14.5-29.3h7.8l16.9,29.3.2.4c4-8.2,8.2-18.2,9.6-22.1,1.5-3.9,1.2-4.5-3.7-4.8l-4.2-.3v-2.4h26.5v2.4c-6.2.6-7.2.5-11,6.7-.2.4-2,3.7-4.7,9,4.4-4.6,11.1-8,22.7-8s27.1,6.7,27.4,16.6v-7.3c0-5.6-.1-6.1-5.5-6.4l-.5-1.7h25.2c6.2,0,10.3.3,13.4,1.6,3.2,1.3,5.6,3.8,5.6,6.8,0,4.5-4.4,7.1-10.3,8.6,1.2,1.4,4.1,5.3,6.4,7.7,1.3,1.3,2.5,2.6,3.7,3.9,1,1.3,2.5,2.3,4.1,2.7,1.2.2,2.9,0,3.5-1.4.4-1.4.5-2.9.4-4.4v-17.4c0-5.6-.6-6.1-6.2-6.4v-1.7h24.5v1.7c-5.2.4-5.8.9-5.8,6.4v8c5.8-4.2,10.6-8,15.2-11.8,1.1-.9,2-2.3-.2-2.5h-3v-1.7h21.2v2.1c-4.5.3-6.8.3-11.1,3-4.3,2.6-8.2,5.3-11.5,7.8,4.9,4.8,10.1,10.1,15.1,14.4,1.9,1.8,4.1,3.2,6.6,4l1.1.2-.3-1c-.6-1.9-1.4-4.1-2.1-6.6l3.5-.7c2.9,5.1,8.3,8.4,14.2,8.5,4.2,0,7.4-1.5,7.4-4.8s-3-4.8-8-6.1l-1.2-.4c-6.7-1.9-14-4.6-14-10.1s6.7-10.5,19.2-10.5c2.5,0,4.9.2,7.4.6,1.8.3,3.1.5,4.2.7.3,2,.9,4.5,1.8,8l-3.5.4c-1.9-4.3-6.2-7-10.9-6.8-4.1,0-7,1.7-7,4.3s3,4.1,8.3,5.5l1.8.5h0c7.3,2,13.7,4.6,13.7,10.6h0ZM80.2,326.9c0-14.9-12.2-19-21.7-19-1.6,0-3.2,0-4.8.5-.6.1-.7,1.7-.7,3.5v26.6c0,6.1,2.5,7.7,7.8,7.7h0c9.6,0,19.4-7,19.4-19.2h0ZM128,324.9c0-5-4.5-7-7.8-7s-3.5.5-3.5,2.6v11.9h1.1c2,.1,4-.2,5.9-.9,2.7-1.1,4.4-3.7,4.4-6.6h0ZM201.5,336l-4.9-9.8h-.2l-4.8,9.8h9.9ZM393.7,332.2c0-10.3-5.3-15.2-12.2-15.2s-12,6-12,14.9,3.9,14.9,12,14.9h0c7,0,12.3-7.4,12.3-14.6ZM433.5,324.8c0-4.9-4.7-7.1-8-7.1s-3.6.5-3.6,2.6v11.9h1.1c2,.1,4.1-.2,6-.9h0c2.7-1.1,4.4-3.7,4.5-6.5h0Z"/>
</svg>