<svg class="svg-icon" style="width: 1em; height: 1em;vertical-align: middle;fill: currentColor;overflow: hidden;" viewBox="0 0 1024 1024" version="1.1" xmlns="http://www.w3.org/2000/svg"><path d="M691.2 659.2V486.4H281.6v172.8h409.6z m0 44.8H281.6v76.8h409.6v-76.8zM347.4176 379.1488c-22.976-43.136-14.6176-65.6448 0-84.4032 2.0928-3.744 6.272-7.5008 6.272-11.2512 4.1728-22.5024-14.624-39.3856-14.624-39.3856-8.352-7.5008-8.352-18.752 0-26.2528 8.352-7.5072 20.8896-9.3824 29.248-1.8816 2.08 0 35.5072 30.016 27.1488 73.152-2.0864 11.2512-8.352 20.6272-12.5312 26.2528-8.352 11.2512-12.5376 18.752 2.0864 48.768 4.1792 9.376 0 20.6272-10.4384 24.3776-2.0928 1.8752-6.272 1.8752-8.3584 1.8752-8.3584 0-14.624-3.7504-18.8032-11.2512z m121.6-57.6c-22.976-43.136-14.6176-65.6448 0-84.4032 2.0928-3.744 6.272-7.5008 6.272-11.2512 4.1728-22.5024-14.624-39.3856-14.624-39.3856-8.352-7.5008-8.352-18.752 0-26.2528 8.352-7.5072 20.8896-9.3824 29.248-1.8816 2.08 0 35.5072 30.016 27.1488 73.152-2.0864 11.2512-8.352 20.6272-12.5312 26.2528-8.352 11.2512-12.5376 18.752 2.0864 48.768 4.1792 9.376 0 20.6272-10.4384 24.3776-2.0928 1.8752-6.272 1.8752-8.3584 1.8752-8.3584 0-14.624-3.7504-18.8032-11.2512z m121.6 57.6c-22.976-43.136-14.6176-65.6448 0-84.4032 2.0928-3.744 6.272-7.5008 6.272-11.2512 4.1728-22.5024-14.624-39.3856-14.624-39.3856-8.352-7.5008-8.352-18.752 0-26.2528 8.352-7.5072 20.8896-9.3824 29.248-1.8816 2.08 0 35.5072 30.016 27.1488 73.152-2.0864 11.2512-8.352 20.6272-12.5312 26.2528-8.352 11.2512-12.5376 18.752 2.0864 48.768 4.1792 9.376 0 20.6272-10.4384 24.3776-2.0928 1.8752-6.272 1.8752-8.3584 1.8752-8.3584 0-14.624-3.7504-18.8032-11.2512zM249.6 422.4h473.6a32 32 0 0 1 32 32v358.4a32 32 0 0 1-32 32H249.6a32 32 0 0 1-32-32V454.4a32 32 0 0 1 32-32z m128 89.6h224a32 32 0 0 1 0 64H377.6a32 32 0 0 1 0-64z" fill="#5C646F" /></svg>