<svg class="svg-icon" style="width: 1em;height: 1em;vertical-align: middle;fill: currentColor;overflow: hidden;" viewBox="0 0 1024 1024" version="1.1" xmlns="http://www.w3.org/2000/svg"><path d="M553.642667 640h127.573333c23.808 0 43.093333 18.944 43.093333 42.666667 0 23.552-18.816 42.666667-42.965333 42.666666H512c-49.749333-43.392-170.666667-149.333333-170.666667-149.333333s-21.333333-21.333333-43.648-21.333333c-22.314667 0-56.362667 23.552-62.250666 49.92L170.666667 896H85.333333l66.816-309.930667C166.656 520.661333 213.333333 469.333333 297.685333 469.333333c43.648 0 78.634667 17.749333 86.101334 24.277334 42.325333 36.906667 169.856 146.389333 169.856 146.389333zM896 469.333333l-128 426.666667h85.333333l128-426.666667h-85.333333zM340.309333 341.333333a85.333333 85.333333 0 1 0 0-170.666666 85.333333 85.333333 0 0 0 0 170.666666z m0 85.333334a170.666667 170.666667 0 1 1 0-341.333334 170.666667 170.666667 0 0 1 0 341.333334z"  /></svg>