<?xml version="1.0" encoding="UTF-8"?>
<svg xmlns="http://www.w3.org/2000/svg" version="1.1" viewBox="0 0 513.2 512.7">
  <!-- Generator: Adobe Illustrator 28.7.1, SVG Export Plug-In . SVG Version: 1.2.0 Build 142)  -->
  <g>
    <g id="Layer_1">
      <g id="SURYPZ.tif">
        <g>
          <path d="M141.1,117.1c-5.1,12.7-10,24.8-14.2,35.2,6.2-5.8,13.5-12.6,20.8-19.4,2.3-2.2,4.9-4.3,6.6-6.9,5.6-8.2,13.1-10.4,22.6-9.5,8.3.8,16.8.2,25.1.2h3.9c.2.3.4.7.6,1-1.1,1.1-2.1,2.4-3.2,3.4-12.1,10.1-24.1,20.1-36.3,30-2.5,2-3.2,4.1-2.9,7.2,2.2,19.7,4.2,39.5,6.4,59.2.4,3.6.9,7.1,1.4,10.7.5,3.3-.4,5-4.2,4.9-9.1-.2-18.1-.1-27.2,0-3.2,0-4.4-1.4-4.7-4.5-1-14.1-2.2-28.1-3.4-42.2-.2-1.9-.5-3.8-.9-6.6-5.7,4.7-10.7,9.1-16,13-4.7,3.4-7.4,7.7-9.3,13-2.6,7.5-5.8,14.9-8.6,22.4-1.3,3.5-3.3,5-7.1,4.9-8-.2-16,0-24,0-4.5,0-5.5-1.5-3.8-5.7,13.9-35.4,27.8-70.9,41.7-106.3.8-1.9,1.4-3.5,4.1-3.5,9.4-.1,18.8-.5,28.2-.7,1.1,0,2.3.2,4.2.4h0Z"/>
          <path d="M237.7,205.2c-.9,1.5-1.9,3-2.7,4.6-3.5,6.8-6.8,13.6-10.5,20.2-.8,1.5-3.2,3-4.9,3-8.4.3-16.8,0-25.2.2-2.8,0-3.7-1.2-3.7-3.9,0-24.3.1-48.6.1-72.9,0-3.1,1.4-4.3,4.3-4.3,6.8,0,13.6.1,20.4,0,3.4,0,4.4,1.1,4,4.5-1.4,11.8-2.5,23.6-3.2,35.6.6-1.2,1.2-2.4,1.7-3.6,4.3-10.2,8.6-20.3,12.7-30.6,1.7-4.2,4.2-6.1,8.7-5.9,5.7.2,11.5.2,17.2,0,3.8-.1,5,1.4,4.6,5-1.1,10.3-2,20.7-2.9,31-.1,1.4,0,2.9,0,5.4,4.1-10.5,7.8-20.1,11.7-29.7,5.7-14.2,1.9-11.3,17-11.6,4.4,0,8.8,0,13.2,0,3,0,4.2,1.3,2.9,4.4-9.8,24.4-19.5,48.7-29.2,73.1-1.1,2.7-2.6,3.6-5.4,3.6-8.6-.1-17.3-.1-26,0-3.6,0-4.6-1.6-4.4-4.9.4-6.5.5-13.1.7-19.6,0-1.1-.2-2.2-.3-3.3-.3,0-.6-.2-1-.2h0Z"/>
          <path d="M169.4,264.7c15.8,0,31.7,0,47.5,0,5,0,5.4.6,3.4,5.3-2,4.9-4.1,9.8-5.9,14.8-1,2.7-2.6,3.7-5.4,3.6-8.5-.1-17.1.2-25.6-.1-4.3-.2-6.1,1.8-7.5,5.5-10.1,26.9-20.3,53.7-30.5,80.5-2.6,6.9-2.7,6.9-10.1,6.9s-13.6,0-20.4,0c-4.6,0-5.2-1-3.6-5.3,9.3-24,18.6-47.9,27.9-71.9,1.5-3.9,2.5-8.1,4-12,1.3-3.3-.4-3.6-3-3.6-9.1,0-18.1,0-27.2,0-5.8,0-5.9-.1-3.7-5.5,2-4.9,4.3-9.8,6.1-14.8,1.1-3,2.9-3.6,5.8-3.6,16,0,32,0,47.9,0h0Z"/>
          <path d="M391.6,202.7c-4.4,3.4-8,6.6-12,9.2-6.9,4.6-11.9,10.4-14.1,18.6-.3,1.1-2.4,2.5-3.8,2.5-7,.2-14.1,0-21.2.1-3.4,0-3.8-1.5-2.7-4.4,7.3-18.9,14.6-37.8,21.9-56.6,2-5.2,4.1-10.4,6-15.7,1.1-3.1,3-4.4,6.3-4.4,6.8.1,13.6,0,20.4,0,4.2,0,4.7.9,2.9,4.8-3.1,6.7-6.2,13.5-8.8,20.7.8-.6,1.6-1,2.2-1.7,8-7.1,15.8-14.3,23.9-21.2,1.7-1.5,4.4-2.5,6.7-2.6,10-.3,20-.2,30,0,1.3,0,2.5.9,3.8,1.4-.7,1.1-1.2,2.6-2.2,3.4-10.4,8.3-20.9,16.6-31.4,24.7-2.5,1.9-3.3,3.9-2.7,7.1,2.5,13.2,4.6,26.5,6.9,39.8.6,3.4-.3,4.6-3.8,4.6-7.3-.2-14.6-.1-22,0-2.9,0-4-1.1-4.1-4-.4-7.4-1-14.9-1.6-22.3,0-1.1-.4-2.2-.8-4.1h0Z"/>
          <path d="M268.7,325.2c0-.3,0-.5,0-.8,0,0,0-.1,0-.2,0-.2,0-.3,0-.5,0-.2,0-.3,0-.5,0-.3,0-.5-.1-.8,0-.2,0-.4-.1-.6,0-.2,0-.3-.1-.5-.3-1.4-.8-2.8-1.4-4.1-.1-.3-.3-.7-.5-1-.1-.3-.3-.7-.5-1s-.4-.7-.5-1c0,0,0,0,0,0-.2-.3-.4-.6-.6-.9-.6-1-1.3-1.9-2-2.8-.2-.3-.5-.6-.8-.9-.3-.3-.5-.6-.8-.8-.3-.3-.5-.5-.8-.8-.3-.2-.5-.5-.8-.7,0,0,0,0,0,0-.3-.2-.6-.5-.9-.7-.3-.2-.6-.5-.9-.7,0,0,0,0,0,0-.3-.2-.6-.4-1-.7-1.3-.8-2.7-1.6-4.2-2.2-.8-.3-1.5-.6-2.3-.8-1.2-.4-2.4-.7-3.7-.9-7.5-1.3-15.4-.9-23-1.3h0c0,.1,0,.2,0,.4h0c-6.2,0-12.5.2-18.8,0-.5,0-.9,0-1.3,0-.3,0-.5,0-.8.1s0,0-.1,0c0,0-.2,0-.2,0-.2,0-.3,0-.4.2-.1,0-.2,0-.3.2-.1,0-.2.1-.3.2s-.2.1-.3.2c-.1,0-.2.2-.3.3,0,.1-.2.2-.3.3t0,0c0,0-.1.2-.2.3,0,.1-.2.2-.2.3,0,.2-.2.4-.3.6,0,.2-.2.5-.3.7-.2.8-.5,1.5-.8,2.3-.5,1.5-1,3.1-1.5,4.6-.5,1.5-1,3.1-1.6,4.6-.3.8-.5,1.5-.8,2.3-.2.6-.4,1.1-.6,1.7-.3,1-.7,1.9-1.1,2.9-6.9,18-13.9,36-20.9,54,0,.2-.1.3-.2.5-.1.3-.2.6-.3.9,0,.1,0,.3-.1.4,0,.1,0,.3,0,.4,0,.1,0,.2,0,.3,0,.2,0,.5,0,.7s0,.3,0,.5c0,.1,0,.3.2.4,0,0,0,0,0,0,0,0,0,.1.1.2,0,0,.1.1.2.2,0,0,.1,0,.2.1.2,0,.3.2.5.2.7.2,1.7.3,3.1.3,6.2,0,12.5-.1,18.8,0,1.1,0,1.9-.1,2.7-.4.2,0,.4-.2.6-.3.2,0,.3-.2.4-.3.1-.1.2-.2.4-.4.1-.1.3-.3.4-.5.1-.2.2-.3.3-.5,0-.2.2-.3.3-.5,0-.2.2-.4.2-.5,0-.2.2-.4.2-.6,1.8-5.1,3.9-10.2,5.9-15.2,0-.2.1-.3.2-.5,0-.2.1-.4.2-.6.1-.3.2-.6.3-.9,0-.2.1-.3.2-.5.1-.4.2-.7.4-1,.1-.4.2-.7.4-1,0-.2.1-.3.2-.4.5-1.4.9-2.1,1.8-2.4,0,0,.2,0,.2,0,1.2-.3,3.4-.1,7.7-.3,1.3,0,2.3.1,3,.5,0,0,0,0,0,0,.2.1.4.2.6.4.4.3.6.8.8,1.3,0,0,0,0,0,.1,0,.2,0,.3.1.5,0,.1,0,.3,0,.5,0,.3,0,.6.1.9.4,6.2,1.2,12.5,1.8,18.7,0,.3,0,.6.1.9,0,.2,0,.5.2.7,0,.1,0,.2,0,.3,0,0,0,.2.1.3,0,.1,0,.2.1.3,0,.1.1.2.2.3.1.2.3.4.5.5,0,0,0,0,0,0,.6.5,1.4.7,2.5.7,6.8,0,13.6,0,20.4,0s2.6-.4,3.1-1.2c0-.1.1-.3.2-.4,0-.1,0-.3,0-.4,0,0,0-.1,0-.2,0-.5,0-1.1-.2-1.7-1.6-6.5-2.7-13-4.4-19.5-.3-1.1-.4-1.9-.3-2.6,0-.2,0-.3.1-.5,0-.2.1-.3.2-.5,0-.1.2-.3.3-.4,0,0,.1-.1.2-.2.5-.4,1.2-.8,2.1-1.2,5.8-2.3,10.7-5.6,14.6-11,.1-.1.2-.3.3-.4.3-.4.6-.9.9-1.3h0c.7-1.2,1.3-2.3,1.8-3.5.2-.6.5-1.2.7-1.8.1-.4.2-.8.3-1.1.1-.5.2-.9.3-1.4.5-2.3.6-4.6.4-6.8ZM234.1,320.1s0,0,0,0c.2,0,.5,0,.7.2,0,0,0,0,0,0,.2,0,.4.1.6.2,0,0,.1,0,.2,0,.2,0,.4.2.6.3,0,0,0,0,.1,0,.2,0,.3.2.5.2.1,0,.2.1.4.2.1,0,.2.1.3.2.4.3.8.6,1.1,1,.2.2.3.3.4.5.1.2.3.4.4.6.1.2.2.4.3.6,0,0,0,0,0,.1,0,.2.1.3.2.5,0,0,0,0,0,0,0,.1,0,.2.1.4,0,.1,0,.2,0,.4,0,.2,0,.4,0,.6,0,.2,0,.4,0,.7v.2c0,.3,0,.6-.1.9,0,.1,0,.3,0,.4,0,.2,0,.3-.1.5,0,0,0,0,0,0,0,.1,0,.2-.1.4,0,.1-.1.2-.2.4,0,0,0,.1,0,.2,0,.1-.1.2-.2.3,0,.1-.1.2-.2.3,0,0,0,0,0,0-.1.2-.2.3-.4.5-.1.2-.2.3-.4.5-.2.2-.4.4-.6.5-.2.2-.4.3-.7.5-.2.1-.5.3-.7.4s-.5.2-.8.4c-.3.1-.5.2-.8.3-.4.1-.9.2-1.3.3-.3,0-.6,0-.9,0,0,0-.1,0-.2,0-.1,0-.2,0-.4,0-5.4,0-10.8,0-16.5,0,.4-1.8.8-3.5,1.2-5.1,0-.4.2-.8.3-1.2.1-.5.2-1.1.3-1.6.1-.6.2-1.1.3-1.7,0,0,0-.2,0-.2,0-.2,0-.4.1-.6,0-.2,0-.3.1-.5.3-.8.6-1.5,1.1-2,.2-.2.4-.4.6-.5.1,0,.2-.2.3-.2.2-.1.5-.2.8-.3.3,0,.5-.2.8-.2,0,0,0,0,.1,0,.6,0,1.3,0,2.1,0"/>
          <path d="M406.7,323.4c0-.5-.2-1-.3-1.5,0-.5-.2-1-.3-1.5-.1-.5-.3-1-.4-1.4-.3-.9-.7-1.9-1.1-2.7-.3-.7-.7-1.4-1.1-2.1-.4-.7-.8-1.3-1.2-2s-.9-1.3-1.4-1.8c-.5-.6-1-1.2-1.6-1.7-.5-.6-1.1-1.1-1.7-1.6h0c-.6-.5-1.2-1-1.9-1.4h0c-.4-.3-.8-.5-1.2-.8-.4-.3-.9-.5-1.3-.8-.4-.2-.9-.5-1.3-.7,0,0,0,0,0,0-.5-.2-.9-.4-1.4-.6h0c-1.9-.8-3.9-1.4-6.1-1.7-7.2-1.2-14.6-.9-21.9-1.2h0s0,.3,0,.3h0c-1.6,0-3.2,0-4.9,0-3.7,0-7.4,0-11.1-.1-1.3,0-2.5,0-3.5.3-2.3.7-3.7,2.5-4.8,5.4-8.6,23.6-17.4,47.1-26.2,70.7,0,.1-.1.3-.2.4-.1.4-.2.7-.3,1,0,0,0,.1,0,.2-.3,1.2-.2,1.9.4,2.4.1,0,.3.2.4.3.7.3,1.7.4,3.1.4,6.3,0,12.5-.1,18.8,0,.5,0,1,0,1.5,0,.4,0,.8-.2,1.1-.3,1.4-.5,2.3-1.7,3-3.5.3-.8.5-1.6.8-2.4.5-1.6,1.1-3.2,1.7-4.8,1.1-3.2,2.3-6.3,3.3-9.5.3-.8.5-1.6.8-2.4.2-.6.4-1.1.6-1.5.2-.4.5-.8.8-1.1.5-.5,1.1-.8,1.8-1.1.2,0,.4,0,.5-.1.6-.1,1.4-.2,2.1-.2,4.8,0,9.5.1,14.3.1s4.4,0,6.5,0c2.1,0,4.2,0,6.4,0,1.3,0,2.6-.1,3.8-.3.5,0,1-.2,1.4-.2.1,0,.3,0,.4,0,.5,0,1-.2,1.5-.3.5-.1,1-.3,1.5-.4.5-.2,1-.3,1.5-.5,5.1-1.9,9.5-5.2,12.6-9.3.5-.6.9-1.3,1.3-2,.4-.7.8-1.4,1.2-2.1.4-.7.7-1.4.9-2.1.1-.4.3-.7.4-1.1.2-.7.4-1.4.6-2.1,0-.1,0-.3,0-.4.1-.7.3-1.4.3-2.2.3-2.7.2-5.3-.2-7.8ZM373.5,333.7c-.6,0-1.1,0-1.7,0-2.1,0-4.1.1-6.3,0-.5,0-.9,0-1.3,0-.8,0-1.7,0-2.6,0-.5,0-.9,0-1.4,0-.9,0-1.8,0-2.7,0-.5,0-.9,0-1.4,0,.6-1.7,1.2-3.4,1.8-4.9.1-.4.3-.8.4-1.2.3-.8.5-1.5.8-2.2.1-.4.3-.7.4-1.1.4-1,.7-1.9,1.1-2.9.1-.3.3-.6.5-.8,0,0,.2-.2.2-.2,0,0,.1,0,.2-.1.2-.1.3-.2.5-.3.1,0,.3-.1.4-.1,3.7-.1,7.4-.3,11.1.1,3.9.4,6.7,3.4,6.8,6.7,0,3.4-2.8,6.8-6.8,7Z"/>
          <path d="M305,233.1c-3.3,0-6.6,0-10,0-3.8,0-4.4-.8-3-4.3,7.3-18.7,14.5-37.4,21.8-56.2,2.2-5.6,4.4-11.1,6.4-16.8.9-2.6,2.4-3.9,5.3-3.8,6.5.2,13,0,19.5,0,3.9,0,4.6,1,3.2,4.6-9.4,24.4-18.9,48.9-28.5,73.3-.5,1.4-2.8,2.7-4.4,2.9-3.4.4-6.9.1-10.4.1h0Z"/>
          <path d="M279.1,381.3c-3.5,0-6.9,0-10.4,0-3.1,0-4.1-1-2.9-4.2,3.3-8.3,6.5-16.6,9.7-24.9,5.9-15.8,11.8-31.5,17.4-47.4,1.3-3.7,3.3-4.8,7.1-4.7,6,.3,12,0,18,0,4.2,0,4.8.8,3.3,4.8-6.1,16-12.4,32-18.5,48-3,8-5.9,16.1-8.6,24.3-1,3.1-2.7,4.2-5.9,4-3-.2-6.1,0-9.2,0h0Z"/>
        </g>
      </g>
    </g>
  </g>
</svg>