<?xml version="1.0" encoding="UTF-8" standalone="no"?>
<svg
   version="1.1"
   viewBox="0 0 119.4 53.8"
   id="svg4"
   width="119.4"
   height="53.799999"
   xmlns="http://www.w3.org/2000/svg"
   xmlns:svg="http://www.w3.org/2000/svg">
  <!-- Generator: Adobe Illustrator 28.7.1, SVG Export Plug-In . SVG Version: 1.2.0 Build 142)  -->
  <g
     id="g4">
    <g
       id="Layer_1">
      <g
         id="svg8054">
        <polygon
           points="38.9,34.2 40.8,17.4 42.9,34.2 "
           id="polygon1" />
        <path
           d="m 62.6,20.5 c 0,3.2 -1.4,5.2 -3.1,6 -0.5,0.3 -1.1,0.4 -1.7,0.4 v -12.7 0 c 0.6,0 4.7,0.2 4.7,6.3 v 0 z"
           id="path1" />
        <path
           d="m 62.6,20.5 c 0,3.2 -1.4,5.2 -3.1,6 -0.5,0.3 -1.1,0.4 -1.7,0.4 v -12.7 0 c 0.6,0 4.7,0.2 4.7,6.3 v 0 z"
           id="path2" />
        <polygon
           points="40.8,17.4 42.9,34.2 38.9,34.2 "
           id="polygon2" />
        <path
           d="m 57.9,14.2 v 0 12.7 c 0.5,0 1.1,-0.1 1.7,-0.4 1.7,-0.8 3.1,-2.8 3.1,-6 0,-6.1 -4.2,-6.3 -4.7,-6.3 v 0 z"
           id="path3" />
        <polygon
           points="40.8,17.4 38.9,34.2 42.9,34.2 "
           id="polygon3" />
        <path
           d="M 0,0 V 53.8 H 119.4 V 0 Z m 101.2,14.4 h -6.4 v 8.9 h 6.4 v 7.2 h -6.4 v 9 h 6.4 v 7.1 H 87.8 V 10.9 l -5.7,35.7 h -8.3 c 0,0 -3.7,-22.2 -4.2,-25 v 1.1 c 0,3.6 -2.2,7.1 -4.3,8.6 l 4.5,15.3 h -7 l -3.4,-13 -1.6,0.2 V 46.6 H 44.3 L 43.5,40.5 H 38 l -0.8,6 H 23.5 v -19 l -3.2,19 h -3.8 l -3.2,-19 v 19 H 6.2 V 7.2 h 9 l 3.2,20.3 3.3,-20.3 h 9 V 43.4 L 36.1,7.2 h 9.4 l 5.2,34.9 V 7.2 h 7.2 c 6.5,0 9.4,4.8 10.3,6.4 L 67.4,7.2 h 7.2 l 3.2,24 3.3,-24 h 20 v 7.2 0 z m 14.3,32.1 H 102.4 V 7.2 h 7 v 32.3 h 6 v 7.1 0 z"
           id="path4" />
      </g>
    </g>
  </g>
</svg>
