<?xml version="1.0" encoding="UTF-8"?>
<svg xmlns="http://www.w3.org/2000/svg" xmlns:svg="http://www.w3.org/2000/svg" xmlns:rdf="http://www.w3.org/1999/02/22-rdf-syntax-ns#" xmlns:dc="http://purl.org/dc/elements/1.1/" xmlns:cc="http://creativecommons.org/ns#" version="1.1" viewBox="0 0 240 53.8">
 
  <!-- Generator: Adobe Illustrator 28.7.1, SVG Export Plug-In . SVG Version: 1.2.0 Build 142)  -->
  <g>
    <g id="svg8054">
      <path id="path4936" d="M126.1,2h113.9V0h-113.9v2Z"/>
      <path id="path4938" d="M126.1,53.8h113.9v-2h-113.9v2Z"/>
      <path id="path4954" d="M148.8,46.6V11.4h-5.9v-4.2h16.3v4.2h-5.9v35.2h-4.5Z"/>
      <path id="path4958" d="M177,39.6c0,4.9-2.4,7.3-7.3,7.3h-1.4c-4.9,0-7.3-2.4-7.3-7.3V7.2h4.5v32.6c0,2,1,3,3,3h1.1c2,0,3-1,3-3V7.2h4.5v32.4Z"/>
      <path id="path4964" d="M203.2,46.6h-4.5V7.2h4.5v39.4Z"/>
      <path id="path4962" d="M184.3,42.5h2.7c3,0,4.4-1.5,4.4-4.6V15.9c0-3-1.4-4.6-4.4-4.6h-2.7v31.1ZM179.8,7.2h7.4c5.9,0,8.7,2.8,8.7,8.7v21.9c0,5.9-2.8,8.7-8.7,8.7h-7.4s0-39.3,0-39.3Z"/>
      <path id="path4968" d="M214.7,11h-1.3c-2,0-3,1-3,3v25.9c0,2,1,3,3,3h1.3c2,0,3-1,3-3V14c0-2-1-3-3-3h0ZM214.9,46.9h-1.7c-4.9,0-7.3-2.4-7.3-7.3V14.2c0-4.9,2.4-7.3,7.3-7.3h1.7c4.9,0,7.3,2.4,7.3,7.3v25.4c0,4.9-2.4,7.3-7.3,7.3h0Z"/>
      <path id="path4972" d="M239.9,33.9v5.7c0,4.9-2.4,7.3-7.3,7.3h-1.2c-4.8,0-7.2-2.4-7.2-7.2v-5.5h4.4v5.6c0,2,1,3,3,3h.9c2,0,3-1,3-3v-5.9c0-2-.7-2.8-2-3.8l-5.5-4c-2.9-2.1-3.8-4.1-3.8-7.3v-4.7c0-4.9,2.4-7.3,7.3-7.3h1.1c4.8,0,7.2,2.4,7.2,7.2v3.4h-4.4v-3.5c0-2-1-3-3-3h-.8c-2,0-3,1-3,3v4.9c0,2,.7,2.8,2,3.8l5.5,3.9c2.9,2.1,3.8,3.9,3.8,7.3h0Z"/>
      <polygon class="cls-1" points="40.8 17.4 42.9 34.2 38.9 34.2 40.8 17.4"/>
      <path class="cls-1" d="M62.6,20.5c0,3.2-1.4,5.2-3.1,6-.5.3-1.1.4-1.7.4v-12.7h0c.6,0,4.7.2,4.7,6.3Z"/>
      <path class="cls-2" d="M62.6,20.5c0,3.2-1.4,5.2-3.1,6-.5.3-1.1.4-1.7.4v-12.7h0c.6,0,4.7.2,4.7,6.3Z"/>
      <path id="path4950" d="M141.9,33.9v5.7c0,4.9-2.4,7.3-7.3,7.3h-1.2c-4.8,0-7.2-2.4-7.2-7.2v-5.5h4.4v5.6c0,2,1,3,3,3h.9c2,0,3-1,3-3v-5.9c0-2-.7-2.8-2-3.8l-5.5-4c-2.9-2.1-3.8-4.1-3.8-7.3v-4.7c0-4.9,2.4-7.3,7.3-7.3h1.1c4.8,0,7.2,2.4,7.2,7.2v3.4h-4.4v-3.5c0-2-1-3-3-3h-.8c-2,0-3,1-3,3v4.9c0,2,.7,2.8,2,3.8l5.5,3.9c2.9,2.1,3.8,3.9,3.8,7.3h0Z"/>
      <polygon class="cls-2" points="42.9 34.2 38.9 34.2 40.8 17.4 42.9 34.2"/>
      <path d="M57.9,14.2h0v12.7c.5,0,1.1-.1,1.7-.4,1.7-.8,3.1-2.8,3.1-6,0-6.1-4.2-6.3-4.7-6.3Z"/>
      <polygon points="38.9 34.2 42.9 34.2 40.8 17.4 38.9 34.2"/>
      <path d="M0,0v53.8h119.4V0H0ZM101.2,14.4h-6.4v8.9h6.4v7.2h-6.4v9h6.4v7.1h-13.4V10.9l-5.7,35.7h-8.3s-3.7-22.2-4.2-25c0,.4,0,.7,0,1.1,0,3.6-2.2,7.1-4.3,8.6l4.5,15.3h0,0s-7,0-7,0l-3.4-13-1.6.2v12.8h0s0,0,0,0h-13.5s-.8-6.1-.8-6.1h-5.5l-.8,6h-13.7v-19l-3.2,19h-3.8l-3.2-19v19h-7.1V7.2h9l3.2,20.3,3.3-20.3h9v36.2l5.4-36.2h9.4l5.2,34.9V7.2h7.2c6.5,0,9.4,4.8,10.3,6.4l-.8-6.4h7.2l3.2,24,3.3-24h20v7.2ZM115.5,46.5h-13.1V7.2h7v32.3h6v7.1Z"/>
    </g>
  </g>
</svg>