<?xml version="1.0" encoding="UTF-8" standalone="no"?>
<svg
   viewBox="0 0 1000 273.70118"
   version="1.1"
   id="svg4"
   width="1000"
   height="273.70117"
   xmlns="http://www.w3.org/2000/svg"
   xmlns:svg="http://www.w3.org/2000/svg">

  <path
     id="path321"
     style="fill:#000000;stroke-width:1.66668"
     d="M 157.65039,0 C 130.36708,0 102.65141,12.132694 67.134766,39.416016 V 6.9335938 H 0 V 266.76758 H 71.466797 V 105.23438 C 102.65013,80.551063 116.9328,72.75 128.63281,72.75 c 13.85001,0 22.95117,8.666433 22.95117,30.31641 V 266.76758 H 223.0332 V 104.80078 C 254.21652,80.550789 268.0845,72.75 280.20117,72.75 c 13.86668,0 22.94922,8.666433 22.94922,30.31641 v 163.70117 h 71.45117 V 77.951172 C 374.60156,19.484531 341.25116,0 309.20117,0 281.91786,0 254.1997,11.26577 217.81641,38.982422 206.14973,9.9491013 180.6004,0 157.65039,0 Z m 362.05273,0 c -71.01648,0 -129.91796,61.06644 -129.91796,136.84961 0,75.78315 58.90148,136.85156 129.91796,136.85156 35.08323,0 65.40089,-12.98184 88.80079,-41.14844 v 34.21485 h 67.99804 V 6.9335938 H 608.50391 V 41.148438 C 585.10401,12.98184 554.78635,0 519.70312,0 Z M 689.05273,6.9335938 C 718.50077,52.830535 751.84935,93.977749 790.83008,135.125 751.84935,177.98882 718.50077,222.60385 689.05273,266.76758 h 86.17774 c 20.34864,-32.91447 43.2989,-62.7972 69.73047,-90.94531 25.98162,28.14811 47.62882,58.03084 67.99414,90.94531 H 1000 C 970.11866,221.30393 937.63698,177.98882 898.65625,135.125 937.2037,93.977749 970.11866,51.547287 1000,6.9335938 H 914.68945 C 893.47419,39.848067 870.52591,67.562237 844.96094,94.84375 818.97934,67.562237 796.02909,39.848067 775.23047,6.9335938 Z M 530.51953,60.201172 c 42.43325,0 76.65039,34.215188 76.65039,76.648438 0,42.43323 -34.21714,76.65039 -76.65039,76.65039 -42.43324,0 -76.65039,-34.20049 -76.65039,-76.65039 0,-42.449917 34.21715,-76.648438 76.65039,-76.648438 z m 0,17.316406 c -32.48327,0 -58.9004,26.415422 -58.90039,59.332032 -1e-5,32.91659 26.41712,59.33398 58.90039,59.33398 32.48328,0 58.89844,-26.41739 58.89844,-59.33398 0,-32.91661 -26.41516,-59.332032 -58.89844,-59.332032 z" />
</svg>
