<?xml version="1.0" encoding="UTF-8"?>
<svg xmlns="http://www.w3.org/2000/svg" xmlns:svg="http://www.w3.org/2000/svg" version="1.1" viewBox="0 0 522.5 300.9">
  <!-- Generator: Adobe Illustrator 28.7.1, SVG Export Plug-In . SVG Version: 1.2.0 Build 142)  -->
  <g>
    <g id="svg3100">
      <path id="path3115" d="M61.3,85c-21.7,19.6-29.6,64.2,9.5,90.2l156.1,107.1-75.7-173.4c-15.9-40.9-59.2-49.8-89.9-23.9"/>
      <path id="path3117" d="M195.7.7c-25.4.5-63.5,30.7-46.5,76.9l78.3,184.6,27.5-194.2C261.3,19.8,224.8-2.5,195.7.7"/>
      <path id="path3119" d="M267.1,60.6h14.8s7.9,0,9,3.7c-5.8,4.8-21.7,5.4-19.6,30.8l24.9,167.1,77.7-185.1C389.9,35.7,356.5,1.2,326.9.2,325.5,0,324.1,0,322.7,0,296.1,0,265.7,19.3,267.1,60.6"/>
      <path id="path3121" d="M370.8,110.5l-73.5,171.3,156-107.7c36-25.5,30.2-66.3,10-86.5-8.4-9.5-23.9-16.8-40.4-16.8-19.4,0-40.2,10.3-52.2,39.6"/>
      <path id="path3123" d="M435.9,198.5l-146.5,102.4h180.4c37,0,60.8-38.2,50.2-73.2-7.1-22-28-39.3-52.4-39.3-10.2,0-21.1,3.1-31.8,10.2"/>
      <path id="path3125" d="M57.1,300.9h177.8l-146.6-102.4c-33.9-21.8-71.9-9-85.7,27.1-11.7,41.3,17.4,75.3,54.5,75.3"/>
    </g>
  </g>
</svg>