<?xml version="1.0" encoding="UTF-8" standalone="no"?>
<svg
   fill="none"
   height="96"
   viewBox="0 0 96 96"
   width="96"
   version="1.1"
   id="svg6"
   xmlns="http://www.w3.org/2000/svg"
   xmlns:svg="http://www.w3.org/2000/svg">
  <path
     d="M 48,96 C 74.5097,96 96,74.5097 96,48 96,21.4903 74.5097,0 48,0 21.4903,0 0,21.4903 0,48 0,74.5097 21.4903,96 48,96 Z M 80.0001,52 c 0,15.464 -12.536,28 -28,28 -15.464,0 -28,-12.536 -28,-28 0,-2.8697 0.4317,-5.6385 1.2337,-8.2452 2.195,4.8617 7.0856,8.2452 12.7663,8.2452 7.732,0 14,-6.268 14,-14 0,-5.6808 -3.3835,-10.5713 -8.2451,-12.7663 C 46.3616,24.4317 49.1304,24 52.0001,24 c 15.464,0 28,12.536 28,28 z"
     fill="url(#a)"
     id="path4"
     style="fill:#000000" />
</svg>
