
<svg
   version="1.0"
   id="katman_1"
   x="0px"
   y="0px"
   viewBox="0 0 313600 160000"
   xml:space="preserve"
   width="313600"
   height="160000"
   xmlns="http://www.w3.org/2000/svg"
   xmlns:svg="http://www.w3.org/2000/svg">
<g
   id="g5"
   transform="matrix(1.433678,0,0,1.433678,-125.40028,-86.757285)">
	<path
   d="m 260.2,203.3 c -0.9,-0.4 -2.4,-2 0.1,-6.6 l 5.6,-11.8 c 0.2,-0.4 -0.2,-0.8 -0.5,-0.5 l -4.9,5 c -2.3,2.4 -6.3,9.3 -7.1,10.6 l -6,9.9 c 0.6,0 1,0.7 0.7,1.2 l -5.5,9.2 c -1.3,2.3 1.1,3.9 1.4,3.4 8.6,-13.9 13.6,-12.8 13.6,-12.8 l 2.9,-6.7 c 0.3,-0.4 0.1,-0.8 -0.3,-0.9"
   id="path1" />
	<path
   d="m 279.8,87.2 c -49.3,0 -89.3,40 -89.3,89.3 0,19.9 6.5,38.2 17.4,53 3.7,-1.6 5.8,-4 7.3,-5.9 l 16.6,-21.3 c 0.4,-0.4 0.8,-0.8 1.3,-1 l 2.5,-1.1 27.3,-34.7 4,-3.1 8.1,-11.3 c 0.2,-0.3 0.5,-0.6 0.8,-0.8 l 3.6,-2.6 c 0.9,-0.6 2.1,-0.7 3,0 l 4.3,3 c 2.3,1.6 4.1,3.7 5.4,6.2 l 17.3,30.3 c 0.4,0.7 0.7,1 1.4,1.3 3.4,1.7 5.4,2 9.9,6.8 2.1,2.3 11.1,12.4 23.8,28.1 1.8,2.4 4,4.4 7.2,5.8 10.9,-14.8 17.4,-33.1 17.4,-52.9 0,-49.1 -40,-89.1 -89.3,-89.1 m -65.2,94.1 -5.8,-1.9 -3.6,4.9 v -6.1 l -5.8,-1.9 5.8,-1.9 v -6.1 l 3.6,4.9 5.8,-1.9 -3.6,4.9 z m -1.3,20 -1.9,5.8 -1.9,-5.8 h -6.1 l 4.9,-3.6 -1.9,-5.8 4.9,3.6 4.9,-3.6 -1.9,5.8 4.9,3.6 z m 1.1,-46.1 1.9,5.8 -4.9,-3.6 -4.9,3.6 1.9,-5.8 -4.9,-3.6 h 6.1 l 1.9,-5.8 1.9,5.8 h 6.1 z m 9.8,-13.1 -3.6,-4.9 -5.8,1.9 3.6,-4.9 -3.6,-4.9 5.8,1.9 3.6,-4.9 v 6.1 l 5.8,1.9 -5.8,1.9 z m 15.2,-21.3 -1.9,5.8 -1.9,-5.8 h -6.1 l 4.9,-3.6 -1.9,-5.8 4.9,3.6 4.9,-3.6 -1.9,5.8 4.9,3.6 z m 19.2,-9.7 -3.6,4.9 v -6.1 l -5.8,-1.9 5.8,-1.9 v -6 l 3.6,4.9 5.8,-1.9 -3.6,4.9 3.6,4.9 z m 24.3,-5.7 1.9,5.8 -4.9,-3.6 -4.9,3.6 1.9,-5.8 -4.9,-3.6 h 6.1 l 1.9,-5.8 1.9,5.8 h 6.1 z m 21.8,4.5 v 6.1 l -3.6,-4.9 -5.8,1.9 3.6,-4.9 -3.6,-4.9 5.8,1.9 3.6,-4.9 v 6.1 l 5.8,1.9 z m 40.3,61.5 5.8,1.9 3.6,-4.9 v 6.1 l 5.8,1.9 -5.8,1.9 v 6.1 l -3.6,-4.9 -5.8,1.9 3.6,-4.9 z m -22.9,-44.8 -1.9,-5.8 h -6.1 l 4.9,-3.6 -1.9,-5.8 4.9,3.6 4.9,-3.6 -1.9,5.8 4.9,3.6 H 324 Z m 13.4,15.5 v -6 l -5.8,-1.9 5.8,-1.9 v -6.1 l 3.6,4.9 5.8,-1.9 -3.6,4.9 3.6,4.9 -5.8,-1.9 z m 10.9,9.5 1.9,-5.8 1.9,5.8 h 6.1 l -4.9,3.6 1.9,5.8 -4.9,-3.6 -4.9,3.6 1.9,-5.8 -4.9,-3.6 z m 3.8,49.7 -1.9,5.8 -1.9,-5.8 h -6.1 l 4.9,-3.6 -1.9,-5.8 4.9,3.6 4.9,-3.6 -1.9,5.8 4.9,3.6 z"
   id="path2" />
	<path
   d="m 312.2,228.1 c 0.4,-0.6 1.1,-2.3 -0.2,-5.5 L 308.1,212 c -0.5,-1.4 0.6,-2.2 1.4,-1.3 0,0 7.5,8.6 9.4,12.2 l 3.7,6.1 c 3.2,0.2 11.9,0.5 20.3,0.5 -0.8,-0.8 -1.6,-1.7 -2.4,-2.7 C 326.1,209 317,199.1 317,199 c -2.9,-3.2 -4.3,-3.8 -6.5,-4.8 -0.3,-0.1 -0.7,-0.3 -1,-0.5 v 2.7 c 0,0.4 -0.4,0.5 -0.6,0.2 l -21.1,-37.1 -0.1,-0.1 c -0.9,-1.7 -2.2,-3.2 -3.8,-4.4 l -2.1,-1.4 -10.1,23.2 c 1.6,0 2.6,1.6 2,3 l -9.3,21.5 h 8.5 c 3.3,0 6.6,0.6 9.6,1.9 l 2.2,0.9 c 0,0 -6.8,14 -6.8,21.3 0,1.3 0.2,2.7 0.6,4 h 15.6 l -0.7,-4.4 c 0.2,-0.1 9.6,2.2 18.8,3.1"
   id="path3" />
	<path
   d="m 191.4,250.7 c 0,-14.4 -15.2,-21.3 -33.3,-21.3 -19.4,0 -37.1,8.6 -43.7,21.9 -1.8,3.5 -2.7,7.5 -2.7,11.4 -0.1,3.5 0.9,6.9 2.7,9.7 2.8,4.1 7.8,6.7 15.1,6.7 9,0 16.1,-4.9 16.1,-13.5 0,0 0.1,-2.4 -2.7,-2.4 -2.3,0 -2.9,1.6 -2.8,2.4 0.3,6.7 -3.7,12.1 -10.8,12.1 -8,0 -11.3,-6.8 -11.3,-14 0,-14.8 11.2,-24.7 22.8,-29 5.5,-2.1 11.2,-3.1 17,-3 13.2,0 24,5.1 24,18.6 0,11.3 -9.5,21 -20.9,21.8 l 0.5,-1.5 c 2.3,-8.3 5.2,-17.4 9.9,-24.2 0.3,-0.4 0.7,-1.1 1.3,-1.7 l -0.7,-0.8 c -1,0.6 -1.9,1.3 -2.9,2 -21.8,17 -22.5,65 -51.6,65 -1,0 -2,-0.1 -3,-0.2 -6.1,-1 -9.2,-5.1 -9.2,-10.7 0,-1.1 0.4,-2.7 0.4,-3.5 0.1,-1.6 -1.3,-3 -2.9,-3 h -0.3 c -2.6,0 -3.7,2.1 -3.7,5 -0.2,8.4 6.1,13.4 15.7,14.3 1.1,0.1 2.1,0.1 3.3,0.1 22.7,0 36.6,-17.2 42.5,-38 3,-0.3 6,-1 8.9,-1.9 10.4,-2.8 22.3,-10 22.3,-22.3"
   id="path4" />
	<path
   d="m 407.5,255.7 h -8 l -1.8,4.2 -3.1,7.1 h -3.7 l -1.1,2.4 h 3.9 l -4.7,10.3 c -3.3,7.3 -8.5,14.4 -11.5,14.4 -0.7,0 -1.1,-0.3 -1.1,-0.9 0,-0.6 0.2,-1.3 0.9,-3.1 0.9,-2.2 2.5,-5.4 3.6,-7.7 1.7,-3.4 4.3,-8.6 4.3,-11.2 0,-2.6 -1.7,-4.7 -4.9,-4.7 -3.7,0 -7,2.2 -10,5.4 l 2,-4.8 h -7.5 l -6.1,14 c -2.5,4.9 -7.5,13.1 -10.6,13.1 -0.7,0 -0.9,-0.4 -0.9,-1.1 0.1,-0.6 0.2,-1.1 0.5,-1.7 0.3,-0.6 3.9,-9.2 3.9,-9.2 L 358.3,267 H 350 l -6.5,14.8 c -2,4.6 -7.1,12.4 -10.3,12.4 -0.5,0.1 -1.1,-0.3 -1.1,-0.9 V 293 c 0,-0.8 0.6,-2.3 1.1,-3.3 l 3.4,-7.5 7,-15.2 h -8.1 l -1.6,3.5 c -1.2,2.3 -3.2,5.1 -6.4,5.1 -1.5,0 -2.3,-0.6 -2.6,-1.2 -0.5,-5.1 -3.7,-7.8 -8.5,-7.8 -6.6,0 -11.4,3.9 -14.5,8.7 -2.1,3.3 -3.7,6.9 -4.8,10.6 -2.9,4.7 -5.9,8.4 -8.3,8.4 -0.6,0 -1,-0.3 -1,-1.1 0,-0.8 0.8,-2.6 1.1,-3.3 l 5.3,-11.2 c 1.5,-3.5 2.5,-5.7 2.5,-8 0,-2.4 -1.7,-4.1 -4.4,-4.1 -3.8,0 -7.9,2.2 -11.2,5.8 0.1,-0.6 0.1,-1.1 0.1,-1.7 0,-2.7 -1.3,-4 -4.1,-4 -3.5,0 -7.1,2.1 -10.3,5.8 l 2.1,-5.2 h -7.3 l -6.2,14 c -2.9,6.6 -7.7,13.1 -10.3,13.1 -0.6,0 -1,-0.3 -1,-1.1 0,-1.3 1.4,-4.4 1.9,-5.7 l 8.2,-18.6 c 0.6,-1.4 -3.3,-2.3 -8.3,-2.3 -5.1,0 -10.4,2.5 -14.2,5.8 -2.7,2.3 -4.7,3.4 -5.7,3.4 -0.5,0 -0.7,-0.3 -0.7,-0.6 0,-1.1 2.7,-4.3 2.7,-6.8 0,-1.1 -0.6,-1.9 -2.1,-1.9 -2.9,0 -6.4,2.8 -8.9,5.7 l 2.1,-5.1 h -7.2 l -6.2,14 c -2.9,6.6 -7.8,13.5 -10.5,13.5 -0.6,0 -1,-0.3 -1,-1.1 0,-1.3 1.3,-4.3 2.1,-5.9 l 8.2,-18.6 c 0.6,-1.4 -3.3,-2.3 -8.3,-2.3 -7.4,0 -14.6,5 -18.4,10.1 -4.2,5.5 -7.1,11.4 -7.1,16.2 -0.1,3.9 1.9,6.3 5.9,6.3 4.5,0 8.1,-3.5 10.1,-6.2 -0.1,0.5 -0.2,1.1 -0.3,1.6 0,2.7 1.1,4.6 4.3,4.6 2.9,0 6.7,-2.4 9.7,-6.2 l -2.5,5.7 h 7.8 l 7.7,-17.4 c 2.5,-5.7 5.4,-8.6 6.2,-8.6 0.3,0 0.4,0.1 0.4,0.3 0,0.6 -1.2,2.2 -1.2,3.6 0,1.5 0.8,2.6 2.9,2.6 1.7,0 3.5,-0.8 5.2,-1.9 -3.9,5.3 -6.6,10.9 -6.6,15.5 -0.1,3.9 1.9,6.3 5.9,6.3 4.2,0 8.1,-4 10.3,-6.7 -0.1,0.6 -0.1,1.2 -0.1,1.9 0,2.6 1.5,4.8 4.5,4.8 3.3,0 6,-2.1 9.3,-6.1 l -2.5,5.6 h 8 l 7.3,-16.6 c 3.2,-7.2 7.5,-11 9.7,-11 0.5,-0.1 1,0.3 1.1,0.9 v 0.2 c -0.1,0.8 -0.3,1.6 -0.7,2.3 l -10.5,24.3 h 8.2 l 7.5,-16.9 c 3.2,-7.3 6.7,-10.8 9.4,-10.8 0.8,0 1.1,0.4 1.1,1.3 -0.1,0.9 -0.3,1.9 -0.7,2.7 l -7.2,15.3 c -0.7,1.5 -1.1,3.1 -1.2,4.7 0,2.3 1.3,4.4 4.9,4.4 4.7,0 8.2,-3.5 12.2,-8.8 v 1.1 c 0.3,4.2 2.7,7.9 8.9,7.9 7.3,0 13.3,-5.1 16.8,-13.1 1.3,-2.9 2.3,-5.9 2.6,-9 0.8,0.4 1.7,0.6 2.6,0.5 1.2,0 2.4,-0.3 3.5,-0.9 l -1.3,2.7 c -1.5,3.1 -3.1,6.5 -4.3,9.3 -0.8,1.7 -1.3,3.5 -1.4,5.4 0,2.9 1.6,4.9 4.9,4.9 3.3,0 7.7,-3.1 10.9,-7.4 h 0.1 c -0.2,0.9 -0.3,1.8 -0.3,2.7 0,2.4 0.7,4.7 4.1,4.7 3.9,0 6.9,-2.8 9.8,-6.3 l -2.5,5.6 h 8 l 6.5,-14.6 c 3.7,-8.3 7.3,-13.2 10.7,-13.2 0.6,0 1.1,0.4 1.1,1 v 0.2 c 0,1.4 -2,5.2 -3.8,9 -1.7,3.5 -2.9,6.1 -3.8,8.2 -0.8,1.7 -1.3,3.6 -1.4,5.5 0,2.5 1.4,4.5 4.5,4.5 4.7,0 9.4,-4.5 11.9,-7.9 -0.6,1.7 -0.9,3.3 -0.9,5.1 0,4.7 2.8,7 6.7,7 2.6,0 5.1,-0.9 7.3,-2.4 3.1,-2.1 5.5,-5.3 7.6,-8.2 l -1.4,-1.3 c -1.9,2.7 -4.1,5.3 -6.3,6.9 -1.2,1 -2.6,1.5 -4.1,1.6 -1.7,0 -2.7,-0.9 -2.7,-3 0,-2.1 1,-5 2.5,-8.9 0.1,-0.1 2.3,-5 4.3,-9.7 1.7,-4 3.5,-7.9 3.8,-8.7 h 5.3 l 1.1,-2.4 h -5.2 z m -227,38.3 c -1.1,0 -1.9,-0.4 -1.9,-1.9 0.1,-3.9 3.3,-10.9 7.4,-16.5 2.9,-3.9 6.6,-6.7 10.6,-6.7 l -5.1,11.3 c -3.8,8.6 -7.9,13.8 -11,13.8 m 49.8,0 c -1.1,0 -1.9,-0.4 -2,-1.9 0.1,-3.9 3.3,-10.9 7.4,-16.5 2.9,-3.9 6.6,-6.7 10.6,-6.7 l -5.1,11.3 c -3.8,8.8 -7.8,13.8 -10.9,13.8 m 88.4,-22 c -0.2,4.3 -4,14.8 -8.4,21 -1.8,2.5 -3.3,3.3 -4.7,3.3 -1.9,0 -2.4,-1.5 -2.1,-3.8 0.4,-3.9 3.7,-13.1 8.2,-19.4 2.1,-2.9 3.5,-4.1 5.1,-4.1 1.5,0 2,1.3 1.9,3"
   id="path5" />
	<polygon
   points="431.2,274 423.8,291 432.5,291 439.8,274 458.3,274 461.4,266.8 442.9,266.8 450.2,249.9 441.6,249.9 434.2,266.8 415.8,266.8 412.7,274 "
   id="polygon5" />
</g>
</svg>
