<?xml version="1.0" encoding="UTF-8"?>
<svg xmlns="http://www.w3.org/2000/svg" version="1.1" viewBox="0 0 560 400">
  <!-- Generator: Adobe Illustrator 28.7.1, SVG Export Plug-In . SVG Version: 1.2.0 Build 142)  -->
  <g>
    <g id="katman_1">
      <path d="M326.7,179.3c.4-1.3.8-2.6,1.2-4.1,3.2-10.7,6.3-21.3,9.5-32.1l.4-1.2c.4-1.2,1.6-2,2.8-2h10.5c2.6,0,3.2.8,2.2,3.3l-4.1,10.9c-4.6,12-9.2,24.1-13.8,36.1-.1.4-.4.8-.5,1.2-.5,1.4-2,2.4-3.4,2.2-3-.1-6.1-.1-9.1,0-2.1.1-3.4-.9-4.1-2.9-1.7-4.6-3.6-9.2-5.3-13.7-4.1-10.8-8.4-21.7-12.5-32.7-.4-.8-.7-1.8-.9-2.6-.3-1.3.3-2.1,1.7-2.1,4-.1,7.9,0,11.7,0s2.4,1.1,2.9,2.5c.8,2.6,1.6,5.3,2.4,7.9,2.9,9.6,5.7,19.2,8.4,28.8q-.3.4,0,.4h0Z"/>
      <path d="M375.6,166.8v24.9c-.1,1.3-.8,2-2.1,2.1-3.7.1-7.4.1-11.2,0-1.3,0-2-.7-2.1-2-.1-.4-.1-.9-.1-1.3v-47.8c.1-2.1.7-2.8,2.8-2.8h10c2.1,0,2.8.7,2.8,2.8v24.1Z"/>
      <path d="M367.9,115.1c1.3-.1,2.8.1,4.1.7,2.6,1.1,4.6,3.6,4.7,6.5.5,6.3-3.7,9.5-9.2,9.4-.8,0-1.6-.1-2.2-.3-4.3-1.1-6.5-4.3-6.1-9.1.4-3.8,3.3-6.6,7.4-7,.3-.1.8-.1,1.3-.1h0Z"/>
      <path d="M556.4,171.8q0-.1,0,0Z"/>
      <path d="M556.4,162.6v.3c-.3-.3-.4-.7-.3-1.1v-.5s0-.1.1-.1h-.1v-.7h.1c0-.1-.1-.1-.1-.1-.1-1.3-.4-2.6-.8-3.8-2.5-9.1-8.3-15.1-17.6-17.5-4.3-1.1-8.8-1.2-13.2-.5-9.4,1.4-16.1,6.3-19.2,15.1-3.2,8.4-3.2,17.6.1,26.1,2.8,7.6,8.3,12.5,16.2,14.5s8.7,1.3,13,.7c14.5-1.7,20.5-12.8,21.5-22.3h-.1v-.9c-.1-.4-.1-.8.3-1.1h.1v-8c.1,0,0,0,0,0ZM539.9,175.7c-.4,1.4-1.1,2.8-2,4-1.6,2.1-4,3.6-6.6,3.7-1.3.1-2.6.1-4-.1-2.9-.5-5.3-2.5-6.5-5.1-1.1-2.1-1.7-4.5-1.8-6.8-.4-4.1-.4-8.2.5-12.1.4-1.6,1.1-3.2,1.8-4.6,1.6-2.5,4.1-4.1,7.1-4.3,1.3-.1,2.6-.1,4,.1,2.8.5,5,2.4,6.3,4.9,1.2,2.4,1.8,5.1,2,7.8.1,1.2.1,2.5.1,3.7,0,3.3-.3,6.3-1.1,9.1h0Z"/>
      <path d="M435.4,115.6h-9.6c-2.6,0-3.2.5-3.2,3.2v22.4c0,.5.3.9-.1,1.4-.7-.1-.9-.5-1.4-.8-7.2-4.2-14.7-5-22.4-1.4-5.3,2.5-8.7,7-10.8,12.2-2.1,5.1-2.5,10.5-2.4,15.9,0,5.1,1.2,10.1,3.4,14.7,2.6,5,6.5,9,12,10.5,7.5,2.4,14.6,1.2,21.1-3.6.5-.3.8-.8,1.3-.9.4.8.7,1.6.8,2.4.3,1.1,1.2,1.8,2.4,1.8h1.7c2.5,0,4.9.1,7.4,0,2,0,2.5-.7,2.5-2.6v-72.8c-.1-2.1-.7-2.5-2.6-2.5h0ZM422.6,166.4v12.6c.1.8-.4,1.6-1.1,2-3.3,1.8-7.1,2.6-10.8,2.1-3.2-.4-5.9-2.2-7.4-5.1-1.1-2.2-1.7-4.6-2-7-.5-4.3-.3-8.8.8-13,.4-1.2.8-2.2,1.3-3.4,1.4-2.6,4.2-4.5,7.2-4.6,3.7-.4,7.4.4,10.7,1.8.8.3,1.3,1.1,1.2,2v12.6h0Z"/>
      <path d="M477,171.8c4-.3,8-1.1,11.6-3,3.7-1.8,6.2-5.1,7-9.2.5-2.5.5-5.1-.1-7.6-1.4-6.2-5.4-10.1-11.3-12.1-3.3-1.1-6.8-1.4-10.3-1.3-11.6.3-20.4,6.2-24.1,17.8-2.4,7.6-2.1,15.5.3,23.2,2.4,7.9,7.9,12.6,15.8,14.7,3.4.8,6.8,1.2,10.4,1.1,5-.1,10.1-1.1,14.9-2.9,2-.8,2.5-1.4,2.5-3.6v-5c-.1-2-.9-2.6-2.9-2.2-1.6.4-3,.8-4.5,1.1-4.6,1.1-9.5,1.3-14.2.5-4.7-.9-7.9-3.6-9.1-8.3-.4-1.3-.7-2.8-.8-4.2.4,0,.7,0,.9.1,4.7,1.1,9.4,1.4,14,1.1h0ZM462.6,160.9c.5-2.6,1.1-5.3,2.8-7.5,2.5-3.4,6.1-4.3,10.1-4,.4,0,.7.1.9.1,4.9.8,6.1,4.6,5.1,8.4-.7,2.8-3,3.8-5.5,4.3-1.3.3-2.9.4-4.3.4-2.9-.1-5.7-.3-8.4-.7-.5-.4-.8-.7-.7-1.2Z"/>
      <path d="M277.3,285c-3.8-.3-7.5-.4-11.3-.7-10.1-.8-20.1-2.2-29.9-4.6-34-7.9-63.7-23.7-89.7-46.8-2.4-2.1-4.7-4.3-7.1-6.6-.5-.5-1.1-1.2-1.3-1.8-.4-.9-.3-2,.5-2.8s1.8-1.1,2.8-.7c.7.3,1.2.5,1.8.9,24.8,15.4,51.9,26.6,80.3,33.2,9.5,2.2,19.1,4,28.8,5.1,13.8,1.7,27.9,2.4,41.9,1.8,7.5-.3,15-.9,22.5-1.8,17.4-2.2,34.6-6.2,51.2-11.7,8.8-2.9,17.4-6.2,25.7-10.1,1.2-.7,2.8-.9,4.1-.5,2.2.5,3.7,2.9,3.2,5.1-.1.3-.3.7-.4.9-.5,1.1-1.3,2-2.2,2.6-7.9,6.2-16.5,11.7-25.5,16.2-17.1,8.7-35.3,14.7-54.1,18.3-10.8,2-21.7,3.2-32.7,3.6h0v.3h-8.6ZM404.6,217.5c4.6.1,9.1.4,13.4,1.6,1.2.4,2.4.8,3.6,1.3,1.6.7,2.6,2.1,2.9,3.8.3,2,.4,4,.3,5.9-.9,11.9-4.6,23.2-10.7,33.3-2.2,3.7-4.9,7-8,9.9-.7.7-1.3,1.1-2.2,1.3-1.3.4-2.1-.4-2.2-1.7.1-.7.3-1.4.5-2.1,2.4-6.5,4.7-12.9,6.6-19.6,1.1-3.7,1.8-7.4,2.4-11.2.1-1.3.3-2.8.1-4.1-.1-2.4-1.6-4.3-3.8-5-2.1-.7-4.3-1.1-6.6-1.2-6.3-.3-12.8,0-19,.8l-8.4,1.1c-.9.1-1.7,0-2.2-.8-.5-.8-.3-1.7.3-2.5.5-.8,1.2-1.4,2.1-2,5.1-3.7,10.8-5.9,17-7.4,4.5-.8,9.2-1.3,14.1-1.4h0Z"/>
      <path d="M56.5,161c-.3-3.6-1.2-7.1-2.6-10.4-2.9-5.9-7.2-10.3-13.8-11.9-7.6-1.7-14.5,0-20.7,4.6-.4.4-.9.8-1.4,1.1-.1-.1-.3-.1-.3-.3-.3-.7-.4-1.3-.5-2.1-.5-1.7-1.2-2.4-3.2-2.4s-4.2.1-6.3,0c-1.6-.1-3,.1-4.1,1.3,0,24.2,0,48.5.1,72.6.9,1.4,2.2,1.7,3.8,1.7,2.5-.1,5,0,7.5,0q4.3,0,4.3-4.3v-19.8c0-.5-.3-1.1.3-1.4,3.4,2.6,7.6,4.3,12,4.7,6.1.7,11.6-.9,16.2-5,3.4-3.2,5.9-7.1,7.2-11.6,1.7-5.3,1.8-11.1,1.4-16.9h0ZM243.9,171.2c5.1.9,10.5,1.1,15.7.3,3-.4,5.9-1.3,8.7-2.8,3.2-1.8,5.4-4.3,6.3-7.8,2.4-8.7-1.3-17.5-10.4-20.7-4.5-1.4-9.1-2-13.7-1.3-10.9,1.2-18,7.2-21.3,17.6-2.2,7.1-2,14.4-.1,21.6,2.4,9.2,8.6,14.6,17.6,16.6,5.3,1.2,10.5.9,15.8.1,2.8-.5,5.5-1.2,8.2-2.2,1.6-.7,2.4-1.6,2.4-3.4-.1-1.7,0-3.4,0-5.1s-.8-2.6-2.9-2.2c-2,.5-4,.9-5.9,1.3-4.3.9-8.7.9-13,.1-5.9-1.2-9.6-6.2-9.4-12.4.8.1,1.6.1,2.1.3h0ZM148.8,193.8h-9.2c-2.4,0-3-.7-3-3v-47.9c0-.5.1-1.1.3-1.7.3-.8,1.1-1.3,2-1.3h8.7c1.2,0,2,.8,2.4,2,.4.9.5,1.8.9,2.9.7,0,1.1-.5,1.6-.8,3.8-2.4,7.8-4.3,12.2-5.1,3.4-.7,6.8-.7,10.4,0,3.3.7,6.2,2.6,8,5.4.1.3.3.4.4.5-.1.1,0,.1.1.3,1.7-1.1,3.6-2.1,5.4-3.2,4.9-2.5,10.3-3.7,15.7-3.4,4,.3,7.5,1.3,10.3,4.2,2.6,2.6,3.6,6.1,3.8,9.6.1.8.1,1.6.1,2.4v35.8c0,3.2-.4,3.6-3.6,3.6h-8.4c-.5,0-1.1,0-1.7-.1-.8-.1-1.6-.8-1.7-1.6-.1-.8-.1-1.6-.1-2.2v-32c.1-1.3-.1-2.5-.4-3.8-.5-2.1-2.5-3.7-4.7-3.8-4.1-.3-8.2.5-11.9,2.2-.5.1-.9.7-.8,1.2v36.3c0,.7,0,1.3-.1,2,0,.9-.8,1.7-1.7,1.7-1.1.1-2.1.1-3.2.1h-7.4c-2.5,0-3.2-.7-3.2-3.2v-32.8c0-1.2-.1-2.4-.4-3.6-.5-2.4-2.5-4-4.9-4.1-4.1-.3-8.4.5-12.1,2.4-.5.1-.9.8-.8,1.3v36.9c.1,2.4-.4,2.9-3,2.9h0ZM78.9,193.8h-9c-.5,0-1.1,0-1.6-.1-.9-.1-1.6-.8-1.7-1.7-.1-.5-.1-1.1-.1-1.7v-47c0-3.2.4-3.6,3.6-3.6h6.6c1.8,0,2.6.7,3.2,2.4.5,1.7.9,3.4,1.3,5.3.5-.1.9-.4,1.2-.8,1.2-1.2,2.5-2.4,4-3.6,3.6-2.8,8-4.1,12.6-3.8,1.8.1,2.4.7,2.5,2.4.1,2.4.1,4.7.1,7.1.1.9,0,1.8-.1,2.9-.3,1.2-.8,1.7-2,1.8-.9.1-1.8,0-2.9-.1-4.6-.4-9.1.5-13.4,2-.9.4-.9,1.1-.9,1.8v33.2c0,.7,0,1.2-.1,1.8-.1.9-.8,1.6-1.7,1.6-.4.1-.9.1-1.4.1ZM120.6,193.7h-9.6c-.4,0-.7,0-.9-.1-.9-.1-1.8-.8-1.8-1.8-.1-.5-.1-1.1-.1-1.7.1-7.6.1-15.5.1-23.4v-24.4c.1-1.7.7-2.2,2.4-2.4,3.6-.1,7.2-.1,10.8,0,1.6,0,2.1.5,2.2,2.1.1.7.1,1.2.1,1.8v46.1c0,.8-.1,1.6-.1,2.2-.1.9-.8,1.6-1.7,1.6-.5,0-.9,0-1.3,0h0ZM39.9,175.4c-.5,2.1-1.6,4.1-3.2,5.5-1.8,1.6-4,2.4-6.3,2.4-3.6.3-7-.5-10.1-2.2-.8-.4-1.2-1.1-1.2-2v-12.5c0-4.1.1-8.3,0-12.4-.1-.9.5-1.8,1.4-2.1,3.8-1.8,7.8-2.6,11.9-1.8,2.9.4,5.4,2.2,6.6,5,1.1,2.2,1.7,4.6,1.8,7.1.4,4.3.4,8.8-.9,13h0ZM242.2,160.6c.3-1.7.7-3.3,1.3-4.7,2.1-5,6.5-6.7,10.8-6.5,1.2.1,2.5.4,3.7.8,1.8.8,3,2.4,3.2,4.3.3,1.2.1,2.4-.3,3.6-.8,2.5-2.9,3.6-5.3,4-1.4.4-3,.5-4.5.4-2.6,0-5.4-.3-8.2-.7q-.9-.1-.8-1.2h0ZM116.1,115.1c1.1-.1,2.2.1,3.3.5,3.7,1.2,5.7,4.5,5.3,8.7-.3,3.6-3,6.5-6.6,7.1-1.6.3-3.2.3-4.6,0-4-.8-6.8-3.7-6.6-8.7.5-4.9,3.7-7.6,9.2-7.6h0Z"/>
    </g>
  </g>
</svg>