<?xml version="1.0" encoding="UTF-8"?>
<svg xmlns="http://www.w3.org/2000/svg" version="1.1" viewBox="0 0 256 256">
  <!-- Generator: Adobe Illustrator 28.7.1, SVG Export Plug-In . SVG Version: 1.2.0 Build 142)  -->
  <g>
    <g id="Layer_1">
      <path d="M127.7,246.2c-27.4,0-54.8,0-82.3,0-14.4,0-25.9-5.9-32.3-19.2-2.3-4.9-3.7-10.8-3.7-16.2-.3-55.2-.2-110.5-.1-165.7,0-20.5,14.8-35.3,35.3-35.3,55.6-.1,111.1-.1,166.7,0,20.3,0,35.1,14.8,35.2,35,.2,55.5.2,111,0,166.5,0,20.4-15.1,34.8-35.7,34.9-27.7,0-55.4,0-83.1,0ZM71.4,94.6c0-11.2.1-22.4,0-33.5-.1-9.2-7.1-14.5-15.4-12.1-5.1,1.5-8,6-8,12.6,0,15.8,0,31.6,0,47.4,0,6.4-.1,12.8,0,19.3.2,9.1,7.3,14.4,15.5,11.9,4.9-1.5,7.8-6.1,7.8-12.4,0-11,0-22.1,0-33.1ZM117.8,94.7c0-11.2,0-22.4,0-33.5-.1-9.2-7-14.6-15.3-12.1-5.1,1.5-8.1,6-8.1,12.6,0,15,0,30.1,0,45.1,0,7.2-.1,14.4,0,21.6.2,9.1,7.3,14.5,15.5,11.9,4.9-1.5,7.8-6,7.9-12.4,0-11,0-22.1,0-33.1Z"/>
    </g>
  </g>
</svg>