<?xml version="1.0" encoding="UTF-8"?>
<svg xmlns="http://www.w3.org/2000/svg" version="1.1" viewBox="0 0 256 256">
  <!-- Generator: Adobe Illustrator 28.7.1, SVG Export Plug-In . SVG Version: 1.2.0 Build 142)  -->
  <g>
    <g id="Layer_1">
      <path d="M127.7,254.3c-29.3,0-58.6,0-87.9,0-15.4,0-27.7-6.3-34.5-20.5-2.5-5.2-3.9-11.5-3.9-17.4-.3-59-.2-118-.1-176.9C1.4,17.6,17.1,1.8,39,1.8c59.3-.1,118.7-.1,178,0,21.7,0,37.5,15.8,37.6,37.3.2,59.3.2,118.6,0,177.8,0,21.8-16.1,37.2-38.1,37.3-29.6,0-59.2,0-88.8,0ZM67.5,92.4c0-11.9.1-23.9,0-35.8-.1-9.8-7.6-15.5-16.4-12.9-5.4,1.6-8.6,6.4-8.6,13.5,0,16.9,0,33.7,0,50.6,0,6.9-.1,13.7,0,20.6.2,9.7,7.8,15.4,16.6,12.7,5.2-1.6,8.3-6.5,8.4-13.3,0-11.8,0-23.6,0-35.4ZM117.1,92.4c0-11.9.1-23.9,0-35.8-.1-9.8-7.5-15.6-16.4-12.9-5.5,1.6-8.6,6.4-8.6,13.5,0,16.1,0,32.1,0,48.2,0,7.7-.1,15.4,0,23,.2,9.7,7.7,15.4,16.6,12.7,5.2-1.6,8.4-6.4,8.4-13.2,0-11.8,0-23.6,0-35.4Z"/>
    </g>
  </g>
</svg>