<?xml version="1.0" encoding="UTF-8" standalone="no"?>
<svg
   id="Layer_1"
   data-name="Layer 1"
   viewBox="0 0 1000 358.14106"
   version="1.1"
   width="1000"
   height="358.14105"
   xmlns="http://www.w3.org/2000/svg"
   xmlns:svg="http://www.w3.org/2000/svg">
  <path
     id="path1585"
     style="fill:#000000;fill-opacity:1;stroke-width:5.97796"
     d="M 179.10015,3.6572086e-5 C 128.22213,-0.03244376 79.730886,21.571192 45.79197,59.47533 77.074542,65.668475 87.716281,91.88217 87.716281,132.4664 H 49.456075 c 0,-23.91176 -4.978628,-36.346117 -19.164283,-36.346117 -6.037102,-0.102951 -11.587543,3.299829 -14.234538,8.726657 -0.424434,0.92658 -0.829842,1.86044 -1.236344,2.793 -1.18039,3.39252 -1.759407,6.9651 -1.710956,10.55677 0,49.61692 81.485312,47.14887 81.485312,123.41549 0,29.7821 -22.828489,57.54948 -48.539621,57.54948 35.195169,38.88579 83.249955,58.579 131.462445,58.97334 48.2125,0.39433 96.5832,-18.5102 132.40973,-56.81511 -30.12285,-7.59199 -56.34831,-50.91501 -56.34831,-119.76896 0,-71.73531 26.53597,-117.000418 58.237,-121.776788 C 280.13939,20.815902 227.16877,0.0307269 179.10015,3.6572086e-5 Z M 110.2224,64.561326 h 40.99071 v 94.768664 h 44.3384 V 64.561326 h 40.97312 V 299.78278 H 195.55151 V 197.87145 H 151.31467 V 299.78278 H 110.2224 Z m 216.64702,33.978906 c -21.03636,10e-7 -32.56092,39.627978 -32.56092,79.207938 0,41.73202 10.96862,82.07126 32.56092,82.07126 17.96373,0 31.31872,-38.30559 31.31872,-80.74897 0,-19.3267 -6.31298,-80.530228 -31.31872,-80.530228 z M 0.00628731,175.80089 c -0.37063244,51.91844 15.69335569,86.52443 35.40860969,86.52443 11.441785,0 19.564679,-10.07354 19.564679,-24.6956 0.02391,-30.33209 -26.560126,-36.17151 -54.97328869,-61.82883 z" />
  <path
     d="m 415.18012,296.62067 h 36.63273 l 20.56574,-144.92421 h 0.64268 l 19.92306,144.92421 h 37.91806 L 560.74704,67.826804 H 530.86239 L 514.4741,202.14679 h -0.6427 L 495.51509,67.826804 H 457.9183 L 437.99524,202.14679 h -0.64267 L 422.57094,67.826804 h -37.91809 z"
     id="path1582"
     style="font-stretch:extra-condensed;font-size:321.336px;font-family:'Franklin Gothic Std';-inkscape-font-specification:'Franklin Gothic Std Extra-Condensed';font-variant-ligatures:no-common-ligatures;fill:#000000;fill-opacity:1;fill-rule:evenodd;stroke-width:19.5392;stroke-linecap:round;stroke-miterlimit:22.6;paint-order:stroke fill markers" />
  <path
     d="m 591.60289,296.62049 h 41.77418 v -193.4465 h 38.26004 V 67.826624 H 555.61288 v 35.347366 h 35.99001 z"
     id="path1579"
     style="font-stretch:extra-condensed;font-size:321.336px;font-family:'Franklin Gothic Std';-inkscape-font-specification:'Franklin Gothic Std Extra-Condensed';font-variant-ligatures:no-common-ligatures;fill:#000000;fill-opacity:1;fill-rule:evenodd;stroke-width:19.5392;stroke-linecap:round;stroke-miterlimit:22.6;paint-order:stroke fill markers" />
  <path
     d="m 671.63711,296.62049 h 41.77398 V 67.826624 h -41.77398 z"
     id="path1576"
     style="font-stretch:extra-condensed;font-size:321.336px;font-family:'Franklin Gothic Std';-inkscape-font-specification:'Franklin Gothic Std Extra-Condensed';font-variant-ligatures:no-common-ligatures;fill:#000000;fill-opacity:1;fill-rule:evenodd;stroke-width:19.5392;stroke-linecap:round;stroke-miterlimit:22.6;paint-order:stroke fill markers" />
  <path
     d="m 733.93883,296.62067 h 30.84855 V 128.88135 h 0.64271 l 27.95652,167.73932 h 23.13647 L 844.801,128.88135 h 0.64271 v 167.73932 h 37.27533 V 67.826804 H 828.41261 L 808.81099,185.1158 h -0.64271 L 789.53057,67.826804 h -55.59174 z"
     id="path1573"
     style="font-stretch:extra-condensed;font-size:321.336px;font-family:'Franklin Gothic Std';-inkscape-font-specification:'Franklin Gothic Std Extra-Condensed';font-variant-ligatures:no-common-ligatures;fill:#000000;fill-opacity:1;fill-rule:evenodd;stroke-width:19.5392;stroke-linecap:round;stroke-miterlimit:22.6;paint-order:stroke fill markers" />
  <path
     d="m 903.27678,296.62067 h 96.72321 V 261.2733 H 945.05096 V 198.93339 H 983.933 V 161.658 h -38.88204 v -58.48383 h 52.6997 V 67.826804 h -94.47388 z"
     id="path1570"
     style="font-stretch:extra-condensed;font-size:321.336px;font-family:'Franklin Gothic Std';-inkscape-font-specification:'Franklin Gothic Std Extra-Condensed';font-variant-ligatures:no-common-ligatures;fill:#000000;fill-opacity:1;fill-rule:evenodd;stroke-width:19.5392;stroke-linecap:round;stroke-miterlimit:22.6;paint-order:stroke fill markers" />
</svg>
