<?xml version="1.0" encoding="UTF-8" standalone="no"?>
<svg id="Layer_1" data-name="Layer 1" viewBox="0 0 1000 358.14106" version="1.1" sodipodi:docname="Showtime.svg" width="1000" height="358.14105" inkscape:version="1.2.2 (732a01da63, 2022-12-09)" xmlns:inkscape="http://www.inkscape.org/namespaces/inkscape" xmlns:sodipodi="http://sodipodi.sourceforge.net/DTD/sodipodi-0.dtd" xmlns="http://www.w3.org/2000/svg" xmlns:svg="http://www.w3.org/2000/svg">
  <sodipodi:namedview id="namedview23" pagecolor="#ffffff" bordercolor="#111111" borderopacity="1" inkscape:showpageshadow="0" inkscape:pageopacity="0" inkscape:pagecheckerboard="1" inkscape:deskcolor="#d1d1d1" showgrid="false" inkscape:zoom="0.6" inkscape:cx="496.66667" inkscape:cy="201.66667" inkscape:window-width="1366" inkscape:window-height="705" inkscape:window-x="-8" inkscape:window-y="-8" inkscape:window-maximized="1" inkscape:current-layer="Layer_1"/>
  <defs id="defs4">
    <style id="style2">.cls-1,.cls-2{fill:#ff1f2c;}.cls-1{fill-rule:evenodd;}</style>
  </defs>
  <title id="title6">Showtime_logo</title>
  <g id="g1593" transform="matrix(1.0000115,0,0,1.0000115,4.2785988e-4,3.6572086e-5)">
    <path id="path1585" style="fill:#ff1f2c;fill-opacity:1;stroke-width:5.97789" d="M 179.09766,0 C 128.22023,-0.03247996 79.729541,21.570907 45.791016,59.474609 77.073228,65.667683 87.714844,91.881077 87.714844,132.46484 H 49.455078 c 0,-23.91148 -4.97857,-36.345699 -19.164062,-36.345699 -6.037033,-0.10295 -11.58741,3.299791 -14.234375,8.726559 -0.424429,0.92657 -0.829832,1.86042 -1.236329,2.79297 -1.180377,3.39248 -1.759387,6.96502 -1.710937,10.55664 0,49.61635 81.484375,47.14833 81.484375,123.41407 0,29.78176 -22.828226,57.54882 -48.539062,57.54882 35.194764,38.88535 83.249002,58.57833 131.460932,58.97266 48.21195,0.39433 96.58209,-18.50998 132.40821,-56.81445 -30.12251,-7.5919 -56.34766,-50.91443 -56.34766,-119.76758 0,-71.73449 26.53566,-116.999077 58.23633,-121.775392 C 280.13574,20.815626 227.16573,0.03068997 179.09766,0 Z M 110.2207,64.560547 h 40.99024 v 94.767573 h 44.33789 V 64.560547 h 40.97265 V 299.7793 H 195.54883 V 197.86914 H 151.3125 V 299.7793 h -41.0918 z m 216.64453,33.978515 c -21.03611,10e-7 -32.56054,39.627518 -32.56054,79.207028 0,41.73154 10.96849,82.07032 32.56054,82.07032 17.96353,0 31.31836,-38.30515 31.31836,-80.74805 0,-19.32647 -6.3129,-80.529298 -31.31836,-80.529298 z M 0.00585938,175.79883 c -0.37062818,51.91784 15.69317562,86.52344 35.40820262,86.52344 11.441653,0 19.564454,-10.07343 19.564454,-24.69532 0.02391,-30.33174 -26.559821,-36.17109 -54.97265662,-61.82812 z"/>
    <path d="m 415.17492,296.61722 h 36.63231 l 20.5655,-144.92254 h 0.64267 l 19.92283,144.92254 h 37.91763 l 29.8843,-228.791233 h -29.8843 l -16.3881,134.318443 h -0.6427 L 495.50896,67.825987 H 457.91261 L 437.98978,202.14443 h -0.64267 L 422.56565,67.825987 H 384.648 Z" id="path1582" style="font-stretch:extra-condensed;font-size:321.336px;font-family:'Franklin Gothic Std';-inkscape-font-specification:'Franklin Gothic Std Extra-Condensed';font-variant-ligatures:no-common-ligatures;fill:#ff1f2c;fill-opacity:1;fill-rule:evenodd;stroke-width:19.539;stroke-linecap:round;stroke-miterlimit:22.6;paint-order:stroke fill markers"/>
    <path d="m 591.59566,296.61704 h 41.7737 V 103.17277 h 38.2596 V 67.825807 h -116.0229 v 35.346963 h 35.9896 z" id="path1579" sodipodi:nodetypes="ccccccccc" style="font-stretch:extra-condensed;font-size:321.336px;font-family:'Franklin Gothic Std';-inkscape-font-specification:'Franklin Gothic Std Extra-Condensed';font-variant-ligatures:no-common-ligatures;fill:#ff1f2c;fill-opacity:1;fill-rule:evenodd;stroke-width:19.539;stroke-linecap:round;stroke-miterlimit:22.6;paint-order:stroke fill markers"/>
    <path d="m 671.62896,296.61704 h 41.7735 V 67.825807 h -41.7735 z" id="path1576" style="font-stretch:extra-condensed;font-size:321.336px;font-family:'Franklin Gothic Std';-inkscape-font-specification:'Franklin Gothic Std Extra-Condensed';font-variant-ligatures:no-common-ligatures;fill:#ff1f2c;fill-opacity:1;fill-rule:evenodd;stroke-width:19.539;stroke-linecap:round;stroke-miterlimit:22.6;paint-order:stroke fill markers"/>
    <path d="m 733.92996,296.61722 h 30.8482 V 128.87983 h 0.6427 l 27.9562,167.73739 h 23.1362 l 28.2776,-167.73739 h 0.6427 v 167.73739 h 37.2749 V 67.825987 h -54.3058 l -19.6014,117.287643 h -0.6427 L 789.52106,67.825987 h -55.5911 z" id="path1573" style="font-stretch:extra-condensed;font-size:321.336px;font-family:'Franklin Gothic Std';-inkscape-font-specification:'Franklin Gothic Std Extra-Condensed';font-variant-ligatures:no-common-ligatures;fill:#ff1f2c;fill-opacity:1;fill-rule:evenodd;stroke-width:19.539;stroke-linecap:round;stroke-miterlimit:22.6;paint-order:stroke fill markers"/>
    <path d="m 903.26596,296.61722 h 96.7221 v -35.34696 h -54.9484 v -62.33919 h 38.8816 V 161.6561 h -38.8816 v -58.48315 h 52.6991 V 67.825987 h -94.4728 z" id="path1570" style="font-stretch:extra-condensed;font-size:321.336px;font-family:'Franklin Gothic Std';-inkscape-font-specification:'Franklin Gothic Std Extra-Condensed';font-variant-ligatures:no-common-ligatures;fill:#ff1f2c;fill-opacity:1;fill-rule:evenodd;stroke-width:19.539;stroke-linecap:round;stroke-miterlimit:22.6;paint-order:stroke fill markers"/>
  </g>
</svg>