<?xml version="1.0" encoding="UTF-8"?><svg id="Layer_1" xmlns="http://www.w3.org/2000/svg" viewBox="0 0 248.55 248.55"><path d="M113.62,248.55H0V0h248.55v113.62c-2.26.41-2.04-1.35-2.2-2.62-.93-7.38-2.34-14.65-4.49-21.77-5.6-18.57-15.11-34.83-28.49-48.87-13.44-14.12-29.24-24.61-47.62-31.14-12.05-4.28-24.46-6.57-37.25-6.99-20.08-.65-39.17,3.46-57.18,12.17-14.97,7.24-27.95,17.2-38.9,29.82-12.35,14.22-21.1,30.31-25.97,48.48-7.3,27.25-5.49,53.94,5.55,79.87,11.57,27.17,30.81,47.43,56.89,61.07,13.07,6.84,27.1,10.93,41.77,12.7,1.28.15,3.36-.36,2.95,2.21Z" style="fill:#fff;"/><path d="M113.62,248.55c-6.09-1.11-12.32-1.76-18.26-3.41C45.42,231.24,13.7,199.07,3,148.4-10.98,82.25,32.75,16.86,99.26,3.34c41.98-8.53,79.27,2.05,110.69,31.37,22.21,20.73,34.72,46.56,37.99,76.81.08.72.4,1.41.61,2.11v21.95c-.6,4.38-.59,8.81-1.07,13.21-1.31,12.01-5.85,22.96-11.25,33.55-6.4,12.56-14.93,23.58-25.15,33.32-16.01,15.25-34.75,25.56-56.15,30.95-5.27,1.33-10.8,1.27-16.23,1.64-1.05.07-2.15-.33-3.14.31h-21.95Z"/><path d="M135.57,248.55c4.82-.86,9.67-1.6,14.46-2.6,49.9-10.4,88.94-51.16,97.06-101.28.49-3.03.98-6.07,1.46-9.11v112.98h-112.98Z" style="fill:#fff;"/><path d="M124.71,14.17c61.03.06,110.4,49.56,110.32,110.61-.08,60.78-49.91,110.36-110.82,110.25-60.66-.1-110.14-49.86-110.05-110.66.1-60.63,49.88-110.26,110.54-110.2Z" style="fill:#fff;"/><path d="M225.92,124.63c0,56.2-45.35,101.31-101.82,101.3-55.79-.01-100.85-45.59-100.82-102,.03-55.71,45.68-100.68,102.16-100.65,55.22.03,100.48,45.68,100.48,101.35Z"/><path d="M124.08,199.3c-12.35-.39-23.86-3.18-34.03-10.39-7.12-5.05-8.36-13.05-2.92-18.37,4.36-4.27,10.21-4.35,15.46-.39,11.14,8.39,32.45,10.05,44.53-3.24,8.82-9.71,11.27-20.99,6.31-33.12-4.99-12.2-14.59-18.78-27.87-19.51-7.59-.42-12.16-4.71-12.05-11.72.11-6.63,5.02-10.87,12.53-10.84,25.34.13,48.21,20.47,51.58,45.86,3.8,28.61-13.68,53.9-41.77,60.24-3.84.87-7.85,1-11.78,1.48Z" style="fill:#fff;"/><path d="M70.76,103.83c.22-29.81,24.06-53.6,53.92-53.58,12.9,0,24.93,2.97,35.4,10.81,6.48,4.85,7.16,12.65,1.81,17.79-4.26,4.09-9.96,4-15.24.28-12.07-8.51-32.57-10.14-44.79,3.43-8.78,9.76-11.06,21.11-5.96,33.19,5.08,12.03,14.63,18.51,27.79,19.19,7.53.39,12.13,4.75,11.99,11.77-.13,6.49-5.02,10.78-12.29,10.77-25.32-.04-48.61-20.56-51.8-45.66-.34-2.66-.56-5.33-.84-8Z" style="fill:#fff;"/></svg>