<svg version="1.0" width="240" height="240" viewBox="0 0 180 180" xmlns="http://www.w3.org/2000/svg">
    <path d="M69 20.7c-17.3 6.2-33.3 20.7-40.6 36.7-2.2 4.7-2.5 6.5-1.9 10.4 1.6 10.4 8.8 18.3 18.3 19.8 8 1.3 15.5-1.7 41.1-16.2 15.3-8.7 31.8-17 38.6-19.4 3.6-1.3 9.6-2.4 15.2-2.7 10.6-.7 10.6-.4 2.7-9.2-6-6.7-13.8-12.5-21.7-16.1-9-4.2-9.6-4.2-11.2.4-1.6 4.6-5.5 8.9-10 11.1-3.7 1.7-12.1 2-15.9.5-4.2-1.6-10.4-8.5-11.2-12.4-.6-3.7-.8-3.8-3.4-2.9zM127.3 88.5C121.2 90.2 111.5 95 94 105c-26.9 15.3-41.5 21-54.3 21h-6.9l4.2 5.2c7.6 9.6 22.2 20 32 22.8 2.5.7 2.8.5 3.3-1.8 1.5-7.6 10.2-14.4 18.5-14.5 8.2-.1 17.5 6.5 18.9 13.4.7 3.7 2.6 3.7 10.6 0 17.5-8 35.7-29.2 35.7-41.5 0-8.8-7.7-19.3-15.7-21.5-4.8-1.4-6.6-1.3-13 .4z"/>
</svg>
