<?xml version="1.0" encoding="utf-8"?>
<!-- Generator: Adobe Illustrator 25.0.1, SVG Export Plug-In . SVG Version: 6.00 Build 0)  -->
<svg version="1.0" id="katman_1" xmlns="http://www.w3.org/2000/svg" xmlns:xlink="http://www.w3.org/1999/xlink" x="0px" y="0px"
	 viewBox="0 0 560 400" style="enable-background:new 0 0 560 400;" xml:space="preserve">
<g>
	<path d="M159.6,278.2c-40.8,0-74.1-35-74.1-78.1c0-43.3,33.3-78.3,74.1-78.3h60.7v41.6h-60.7c-18,0-32.7,16.5-32.7,36.7
		c0,20,14.6,36.4,32.7,36.4h60.6c17.3-0.5,31.5-16.6,31.8-36.1v-78.7h41.4v92.6c0,13.6,10.8,24.6,24.4,24.6s24.6-11.1,24.6-24.6
		v-92.6h41.4v92.6c0,13.6,11.1,24.6,24.6,24.6c13.6,0,24.4-11.1,24.4-24.6v-92.6h41.5v92.6c0,35-28.5,63.7-63.6,63.7
		c-19,0-36-8.4-47.6-21.7c-11.7,13.3-28.7,21.7-47.6,21.7c-18.9,0-35.8-8.4-47.5-21.6c-12.9,12.9-30,21-48.8,21.6h-59.7V278.2z
		 M160.4,210.3v-21.9h7.9V184h-21.1v4.4h7.9v21.9H160.4L160.4,210.3z M214.6,188.3V184h-17.2v26.2H215v-4.2h-12.3v-6.8h10.7v-4.4
		h-10.7v-6.4H214.6z M193.2,210.3v-26.2h-5.4v10.7h-11.2v-10.7h-5.4v26.2h5.4v-11.1h11.2v11.1H193.2z"/>
</g>
</svg>
