<?xml version="1.0" encoding="UTF-8"?><svg id="Layer_1" xmlns="http://www.w3.org/2000/svg" viewBox="0 0 256 256"><g id="W8ts7G.tif"><path d="M235.33,130.91c0,38.4,0,76.81.03,115.21,0,.96-.22,1.12-1.14,1.12-53.82-.03-107.64-.02-161.46-.02,0-.06.01-.13.02-.19,6.1-.25,11.63-2.21,16.89-5.28,23.29-13.59,46.63-27.11,69.96-40.65,17.33-10.06,34.71-20.02,51.96-30.2,7.28-4.3,10.94-10.78,10.03-19.45-.5-4.83-2.52-9.06-5.16-13.06-.42-.63-.76-.57-1.31-.24-2.02,1.22-4.07,2.41-6.11,3.6-18.02,10.56-36.04,21.12-54.06,31.68-28.86,16.9-57.77,33.71-86.55,50.74-10.16,6.01-20.65,8.35-32.14,4.86-.14-.04-.3-.1-.46.32,8.08,11.02,19.19,16.56,32.72,17.67,0,.07.01.13.02.2H20.66c0-79.13,0-158.25-.02-237.38,0-.87.2-1.07,1.07-1.07,70.86.02,141.72.02,212.58,0,.87,0,1.07.2,1.07,1.07-.03,37.1-.02,74.2-.02,111.3-.49-.29-.37-.81-.43-1.25-1.71-11-6.94-19.95-15.77-26.74-3.39-2.6-7.27-4.43-10.95-6.58-12.92-7.53-25.9-14.97-38.85-22.45-21.74-12.56-43.48-25.12-65.22-37.68-5.4-3.12-10.93-6.05-16.15-9.44-9.73-6.32-20.24-9.12-31.73-7.48-13.92,1.99-24.01,9.46-30.19,22.08-3.77,7.71-5.05,15.97-4.94,24.5.58,45.82,1.14,91.63,1.71,137.45.03,2.79,0,5.59.21,8.37.45,6.18,2.97,11.28,8.3,14.7,4.89,3.14,10.33,3.71,15.98,3.28.89-.07,1.14-.39,1.13-1.28-.1-6.16-.14-12.33-.2-18.49-.37-35.89-.73-71.79-1.1-107.68-.16-15.16-.33-30.31-.49-45.47-.04-3.27.21-6.5,1.41-9.6,1.7-4.39,5.09-6.35,9.74-5.57,2.2.37,4.25,1.2,6.18,2.29,3.78,2.13,7.53,4.31,11.31,6.44,22.45,12.64,44.91,25.28,67.36,37.92,19.58,11.02,39.18,22.03,58.74,33.1,4.51,2.55,9.2,4.83,13.44,7.86,7.2,5.14,12.53,11.62,14.67,20.39.39,1.61.69,3.23,1.04,4.89.48-.26.59-.7.77-1.06,1.81-3.63,3.01-7.46,3.61-11.48.06-.43-.07-.96.45-1.23ZM79.53,170.9s-.05,0-.08,0c0,1.86.01,3.72,0,5.58-.01,1.23,0,1.27,1.08.66,3.67-2.08,7.34-4.18,11.01-6.28,12.44-7.12,24.88-14.26,37.33-21.37,12.82-7.33,25.65-14.64,38.47-21.96,1.17-.67,1.16-.79,0-1.45-9.96-5.61-19.92-11.22-29.89-16.83-18.37-10.35-36.74-20.7-55.1-31.04-1.08-.61-1.16-.55-1.19.74-.08,3.25-.08,6.51-.18,9.76-.24,8.48-.34,16.97-.5,25.46-.15,8.18-.32,16.35-.45,24.53-.18,10.73-.33,21.47-.5,32.2Z" style="fill:#fff;"/><path d="M235.33,130.91c-.52.28-.39.8-.45,1.23-.6,4.02-1.8,7.85-3.61,11.48-.18.36-.29.81-.77,1.06-.35-1.66-.65-3.28-1.04-4.89-2.14-8.77-7.48-15.25-14.67-20.39-4.24-3.03-8.92-5.3-13.44-7.86-19.56-11.07-39.15-22.07-58.74-33.1-22.45-12.64-44.91-25.27-67.36-37.92-3.78-2.13-7.54-4.31-11.31-6.44-1.93-1.09-3.98-1.92-6.18-2.29-4.64-.78-8.04,1.18-9.74,5.57-1.19,3.09-1.44,6.32-1.41,9.6.17,15.16.34,30.31.49,45.47.37,35.89.74,71.79,1.1,107.68.06,6.16.1,12.33.2,18.49.01.89-.23,1.21-1.13,1.28-5.65.43-11.09-.13-15.98-3.28-5.33-3.43-7.85-8.52-8.3-14.7-.2-2.78-.17-5.58-.21-8.37-.57-45.82-1.12-91.63-1.71-137.45-.11-8.53,1.17-16.79,4.94-24.5,6.18-12.62,16.27-20.09,30.19-22.08,11.5-1.64,22,1.16,31.73,7.48,5.22,3.39,10.75,6.32,16.15,9.44,21.74,12.56,43.48,25.12,65.22,37.68,12.95,7.48,25.92,14.92,38.85,22.45,3.68,2.14,7.56,3.97,10.95,6.58,8.83,6.79,14.06,15.74,15.77,26.74.07.43-.05.95.43,1.25v9.77Z"/><path d="M72.78,247.02c0,.06-.01.13-.02.19h-4.19c0-.07,0-.13-.02-.2,1.41,0,2.81,0,4.22,0Z" style="fill:#b6b6b6;"/><path d="M72.78,247.02c-1.41,0-2.81,0-4.22,0-13.54-1.11-24.65-6.65-32.72-17.67.16-.41.32-.36.46-.32,11.49,3.49,21.98,1.15,32.14-4.86,28.78-17.03,57.69-33.84,86.55-50.74,18.02-10.56,36.04-21.12,54.06-31.68,2.04-1.2,4.08-2.38,6.11-3.6.56-.34.9-.39,1.31.24,2.64,3.99,4.66,8.23,5.16,13.06.91,8.67-2.76,15.16-10.03,19.45-17.25,10.18-34.64,20.14-51.96,30.2-23.33,13.54-46.67,27.05-69.96,40.65-5.26,3.07-10.79,5.03-16.89,5.28Z"/><path d="M79.53,170.9c.16-10.73.32-21.47.5-32.2.14-8.18.3-16.35.45-24.53.16-8.49.26-16.97.5-25.46.09-3.26.1-6.51.18-9.76.03-1.29.12-1.35,1.19-.74,18.37,10.35,36.74,20.7,55.1,31.04,9.96,5.61,19.92,11.22,29.89,16.83,1.17.66,1.18.78,0,1.45-12.82,7.32-25.65,14.63-38.47,21.96-12.45,7.12-24.89,14.25-37.33,21.37-3.67,2.1-7.33,4.19-11.01,6.28-1.07.61-1.09.57-1.08-.66.02-1.86,0-3.72,0-5.58.03,0,.05,0,.08,0Z"/></g></svg>